<svg id="Group_1611" data-name="Group 1611" xmlns="http://www.w3.org/2000/svg" width="155" height="48" viewBox="0 0 155 48">
  <path id="Rectangle_1607" data-name="Rectangle 1607" d="M6,1A5.006,5.006,0,0,0,1,6V42a5.006,5.006,0,0,0,5,5H149a5.006,5.006,0,0,0,5-5V6a5.006,5.006,0,0,0-5-5H6M6,0H149a6,6,0,0,1,6,6V42a6,6,0,0,1-6,6H6a6,6,0,0,1-6-6V6A6,6,0,0,1,6,0Z" fill="#d6e9ff"/>
  <g id="_Group_" data-name="&lt;Group&gt;" transform="translate(12.321 5.607)">
    <g id="_Group_2" data-name="&lt;Group&gt;" transform="translate(0 2.624)">
      <g id="_Group_3" data-name="&lt;Group&gt;">
        <path id="_Path_" data-name="&lt;Path&gt;" d="M29.341,21.747a6.6,6.6,0,0,1,3.142-5.537,6.755,6.755,0,0,0-5.322-2.877c-2.239-.235-4.41,1.34-5.551,1.34-1.163,0-2.92-1.317-4.812-1.278a7.088,7.088,0,0,0-5.965,3.638C8.255,21.5,10.178,28.06,12.649,31.669c1.236,1.767,2.681,3.741,4.571,3.671,1.85-.077,2.54-1.179,4.773-1.179,2.212,0,2.86,1.179,4.789,1.135,1.985-.032,3.235-1.775,4.428-3.559a14.618,14.618,0,0,0,2.025-4.124A6.377,6.377,0,0,1,29.341,21.747Z" transform="translate(-9.609 -6.305)" fill="#d6e9ff"/>
        <path id="_Path_2" data-name="&lt;Path&gt;" d="M23.109,12.5A6.5,6.5,0,0,0,24.6,7.847a6.611,6.611,0,0,0-4.277,2.213,6.182,6.182,0,0,0-1.525,4.482A5.466,5.466,0,0,0,23.109,12.5Z" transform="translate(-7.02 -7.847)" fill="#d6e9ff"/>
      </g>
    </g>
    <g id="Group_860" data-name="Group 860" transform="translate(31.824 15.478)">
      <path id="Path_1166" data-name="Path 1166" d="M44.525,29.7h-6.07L37,34H34.427l5.749-15.924h2.671L48.6,34H45.981Zm-5.441-1.986H43.9l-2.372-6.985h-.066Z" transform="translate(-34.427 -17.813)" fill="#d6e9ff"/>
      <path id="Path_1167" data-name="Path 1167" d="M57.567,27.275c0,3.608-1.931,5.926-4.845,5.926a3.936,3.936,0,0,1-3.653-2.031h-.055v5.75H46.631V21.47h2.307V23.4h.044a4.118,4.118,0,0,1,3.7-2.052C55.625,21.348,57.567,23.677,57.567,27.275Zm-2.449,0c0-2.351-1.215-3.9-3.068-3.9-1.821,0-3.046,1.578-3.046,3.9,0,2.339,1.225,3.906,3.046,3.906,1.853,0,3.068-1.534,3.068-3.906Z" transform="translate(-30.981 -16.89)" fill="#d6e9ff"/>
      <path id="Path_1168" data-name="Path 1168" d="M67.532,27.275c0,3.608-1.932,5.926-4.846,5.926a3.936,3.936,0,0,1-3.653-2.031h-.055v5.75H56.6V21.47H58.9V23.4h.044a4.118,4.118,0,0,1,3.7-2.052C65.59,21.348,67.532,23.677,67.532,27.275Zm-2.45,0c0-2.351-1.215-3.9-3.068-3.9-1.821,0-3.046,1.578-3.046,3.9,0,2.339,1.225,3.906,3.046,3.906,1.853,0,3.068-1.534,3.068-3.906Z" transform="translate(-28.168 -16.89)" fill="#d6e9ff"/>
      <path id="Path_1169" data-name="Path 1169" d="M72.247,29.624c.177,1.579,1.711,2.616,3.807,2.616,2.009,0,3.454-1.037,3.454-2.461,0-1.236-.872-1.976-2.935-2.483l-2.064-.5c-2.924-.706-4.282-2.074-4.282-4.293,0-2.747,2.394-4.635,5.793-4.635,3.366,0,5.673,1.887,5.75,4.635H79.364c-.144-1.589-1.458-2.548-3.377-2.548s-3.233.971-3.233,2.383c0,1.126.839,1.788,2.891,2.3l1.754.431c3.267.773,4.623,2.085,4.623,4.414,0,2.979-2.372,4.845-6.146,4.845-3.531,0-5.916-1.822-6.07-4.7Z" transform="translate(-24.438 -17.871)" fill="#d6e9ff"/>
      <path id="Path_1170" data-name="Path 1170" d="M84.245,19.3v2.747h2.208v1.887H84.245v6.4c0,.994.442,1.458,1.413,1.458a7.445,7.445,0,0,0,.784-.055v1.876a6.544,6.544,0,0,1-1.324.11c-2.351,0-3.267-.883-3.267-3.134V23.934H80.163V22.047h1.688V19.3Z" transform="translate(-21.515 -17.468)" fill="#d6e9ff"/>
      <path id="Path_1171" data-name="Path 1171" d="M86.064,27.279c0-3.653,2.151-5.948,5.506-5.948s5.507,2.3,5.507,5.948-2.13,5.948-5.507,5.948S86.064,30.942,86.064,27.279Zm8.586,0c0-2.506-1.148-3.985-3.079-3.985s-3.079,1.49-3.079,3.985c0,2.516,1.148,3.983,3.079,3.983S94.65,29.8,94.65,27.279Z" transform="translate(-19.848 -16.894)" fill="#d6e9ff"/>
      <path id="Path_1172" data-name="Path 1172" d="M96.185,21.47h2.273v1.976h.055a2.769,2.769,0,0,1,2.793-2.1,3.676,3.676,0,0,1,.816.089v2.229a3.331,3.331,0,0,0-1.071-.144,2.4,2.4,0,0,0-2.483,2.671v6.886H96.185Z" transform="translate(-16.991 -16.89)" fill="#d6e9ff"/>
      <path id="Path_1173" data-name="Path 1173" d="M111.689,29.674c-.321,2.108-2.373,3.554-5,3.554-3.377,0-5.474-2.263-5.474-5.893s2.108-6,5.373-6c3.212,0,5.232,2.206,5.232,5.727v.816h-8.2v.144a3.024,3.024,0,0,0,3.123,3.288,2.627,2.627,0,0,0,2.681-1.633Zm-8.056-3.465h5.8a2.792,2.792,0,0,0-2.848-2.947,2.939,2.939,0,0,0-2.956,2.947Z" transform="translate(-15.571 -16.894)" fill="#d6e9ff"/>
    </g>
    <path id="Path_1856" data-name="Path 1856" d="M5.088-3,4.12-5.648q-.072-.176-.149-.418t-.154-.522q-.071.28-.148.525t-.148.426L2.558-3ZM7.7,0H6.556a.488.488,0,0,1-.314-.1.6.6,0,0,1-.181-.239L5.467-1.958H2.173L1.579-.336a.527.527,0,0,1-.17.231.476.476,0,0,1-.314.1H-.06l3.13-7.953H4.576Zm5.236-5.643L10.7,0H9.465L7.227-5.643H8.349a.434.434,0,0,1,.256.072.337.337,0,0,1,.135.181L9.828-2.376q.088.264.154.517t.115.506q.055-.253.121-.506t.16-.517L11.49-5.39a.372.372,0,0,1,.137-.181.393.393,0,0,1,.236-.072ZM16.5-2.409a7.492,7.492,0,0,0-.99.1,2.639,2.639,0,0,0-.643.19.846.846,0,0,0-.347.269.585.585,0,0,0-.1.335A.59.59,0,0,0,14.627-1a.918.918,0,0,0,.553.154A1.612,1.612,0,0,0,15.9-1a2.148,2.148,0,0,0,.6-.459ZM13.387-4.857a3.348,3.348,0,0,1,2.343-.891,2.29,2.29,0,0,1,.885.162,1.871,1.871,0,0,1,.66.451,1.93,1.93,0,0,1,.41.69,2.652,2.652,0,0,1,.14.88V0h-.616a.623.623,0,0,1-.3-.058.4.4,0,0,1-.165-.234L16.626-.7a4.911,4.911,0,0,1-.418.338,2.461,2.461,0,0,1-.424.245,2.275,2.275,0,0,1-.47.151,2.709,2.709,0,0,1-.553.052,2.167,2.167,0,0,1-.66-.1A1.45,1.45,0,0,1,13.579-.3a1.3,1.3,0,0,1-.341-.478,1.7,1.7,0,0,1-.121-.665,1.325,1.325,0,0,1,.071-.426,1.246,1.246,0,0,1,.234-.4,1.946,1.946,0,0,1,.421-.363,2.734,2.734,0,0,1,.635-.3,5.489,5.489,0,0,1,.877-.206,8.763,8.763,0,0,1,1.144-.1v-.33a1.235,1.235,0,0,0-.242-.839.886.886,0,0,0-.7-.272,1.658,1.658,0,0,0-.547.077,2.252,2.252,0,0,0-.382.173l-.3.173a.593.593,0,0,1-.3.077.392.392,0,0,1-.242-.074.62.62,0,0,1-.16-.173Zm7.123-.786V0H19.146V-5.643ZM20.7-7.288a.774.774,0,0,1-.072.33.907.907,0,0,1-.19.27.907.907,0,0,1-.278.184.852.852,0,0,1-.341.069.819.819,0,0,1-.333-.069.881.881,0,0,1-.272-.184.891.891,0,0,1-.184-.27.8.8,0,0,1-.069-.33.852.852,0,0,1,.069-.341.873.873,0,0,1,.184-.275.881.881,0,0,1,.272-.184.819.819,0,0,1,.333-.069.852.852,0,0,1,.341.069.907.907,0,0,1,.278.184.887.887,0,0,1,.19.275A.824.824,0,0,1,20.7-7.288Zm2.574-.885V0H21.912V-8.173Zm4.34,5.764a7.492,7.492,0,0,0-.99.1,2.639,2.639,0,0,0-.644.19.846.846,0,0,0-.346.269.585.585,0,0,0-.1.335A.59.59,0,0,0,25.737-1a.918.918,0,0,0,.553.154A1.612,1.612,0,0,0,27.013-1a2.148,2.148,0,0,0,.6-.459ZM24.5-4.857a3.348,3.348,0,0,1,2.343-.891,2.29,2.29,0,0,1,.885.162,1.871,1.871,0,0,1,.66.451,1.93,1.93,0,0,1,.41.69,2.652,2.652,0,0,1,.14.88V0h-.616a.623.623,0,0,1-.3-.058.4.4,0,0,1-.165-.234L27.736-.7a4.911,4.911,0,0,1-.418.338,2.461,2.461,0,0,1-.424.245,2.275,2.275,0,0,1-.47.151,2.709,2.709,0,0,1-.553.052,2.167,2.167,0,0,1-.66-.1A1.45,1.45,0,0,1,24.69-.3a1.3,1.3,0,0,1-.341-.478,1.7,1.7,0,0,1-.121-.665,1.325,1.325,0,0,1,.071-.426,1.246,1.246,0,0,1,.234-.4,1.946,1.946,0,0,1,.421-.363,2.734,2.734,0,0,1,.635-.3,5.489,5.489,0,0,1,.877-.206,8.763,8.763,0,0,1,1.144-.1v-.33a1.235,1.235,0,0,0-.242-.839.886.886,0,0,0-.7-.272,1.658,1.658,0,0,0-.547.077,2.252,2.252,0,0,0-.382.173l-.3.173a.593.593,0,0,1-.3.077.392.392,0,0,1-.242-.074.62.62,0,0,1-.16-.173ZM31.57-1.463a1.337,1.337,0,0,0,.5.4,1.457,1.457,0,0,0,.575.116,1.358,1.358,0,0,0,.564-.113,1.073,1.073,0,0,0,.426-.352,1.738,1.738,0,0,0,.27-.611A3.678,3.678,0,0,0,34-2.915a2.291,2.291,0,0,0-.308-1.345,1.036,1.036,0,0,0-.886-.415,1.278,1.278,0,0,0-.682.179,2.231,2.231,0,0,0-.556.5Zm0-3.487a2.8,2.8,0,0,1,.756-.569,2.059,2.059,0,0,1,.949-.212,1.981,1.981,0,0,1,.883.193,1.887,1.887,0,0,1,.671.553,2.6,2.6,0,0,1,.426.872,4.121,4.121,0,0,1,.148,1.15,4.284,4.284,0,0,1-.17,1.248,2.869,2.869,0,0,1-.487.96,2.214,2.214,0,0,1-.762.619,2.205,2.205,0,0,1-.99.22A2.024,2.024,0,0,1,32.516.03a1.782,1.782,0,0,1-.4-.146,1.6,1.6,0,0,1-.333-.228,2.807,2.807,0,0,1-.289-.3l-.061.379a.341.341,0,0,1-.113.2.351.351,0,0,1-.217.06h-.9V-8.173H31.57Zm6.259-3.223V0H36.471V-8.173Zm4.994,4.7a1.635,1.635,0,0,0-.074-.5,1.183,1.183,0,0,0-.223-.41,1.036,1.036,0,0,0-.377-.278,1.293,1.293,0,0,0-.531-.1,1.258,1.258,0,0,0-.927.336,1.645,1.645,0,0,0-.432.951Zm-2.59.819a2.673,2.673,0,0,0,.154.751,1.536,1.536,0,0,0,.319.523,1.249,1.249,0,0,0,.47.308,1.708,1.708,0,0,0,.6.1,1.867,1.867,0,0,0,.569-.077,2.669,2.669,0,0,0,.418-.171q.179-.094.314-.171a.526.526,0,0,1,.261-.077.281.281,0,0,1,.253.127l.39.5a2.264,2.264,0,0,1-.506.443,2.838,2.838,0,0,1-.586.286,3.2,3.2,0,0,1-.621.151,4.45,4.45,0,0,1-.613.044,3.014,3.014,0,0,1-1.094-.2,2.45,2.45,0,0,1-.88-.577,2.71,2.71,0,0,1-.589-.946,3.661,3.661,0,0,1-.215-1.306,3.124,3.124,0,0,1,.187-1.086,2.612,2.612,0,0,1,.536-.885,2.525,2.525,0,0,1,.853-.6,2.808,2.808,0,0,1,1.136-.22,2.762,2.762,0,0,1,.985.171,2.145,2.145,0,0,1,.775.5,2.306,2.306,0,0,1,.509.8,2.992,2.992,0,0,1,.184,1.086.882.882,0,0,1-.066.415.273.273,0,0,1-.253.107Zm10-3.08a3.077,3.077,0,0,1,1.141.2,2.5,2.5,0,0,1,.88.578,2.537,2.537,0,0,1,.564.913,3.473,3.473,0,0,1,.2,1.2,3.49,3.49,0,0,1-.2,1.21,2.592,2.592,0,0,1-.564.918,2.464,2.464,0,0,1-.88.583,3.077,3.077,0,0,1-1.141.2,3.114,3.114,0,0,1-1.149-.2A2.459,2.459,0,0,1,48.2-.7a2.624,2.624,0,0,1-.567-.918,3.447,3.447,0,0,1-.2-1.21,3.43,3.43,0,0,1,.2-1.2A2.568,2.568,0,0,1,48.2-4.95a2.5,2.5,0,0,1,.883-.578A3.114,3.114,0,0,1,50.231-5.731Zm0,4.769a1.2,1.2,0,0,0,1.042-.473,2.372,2.372,0,0,0,.338-1.386,2.4,2.4,0,0,0-.338-1.391,1.19,1.19,0,0,0-1.042-.478,1.213,1.213,0,0,0-1.059.481,2.371,2.371,0,0,0-.344,1.389,2.344,2.344,0,0,0,.344,1.383A1.219,1.219,0,0,0,50.231-.962ZM55.325-4.95a3.675,3.675,0,0,1,.36-.316,2.276,2.276,0,0,1,.4-.248,2.25,2.25,0,0,1,.454-.159,2.273,2.273,0,0,1,.528-.058,2.023,2.023,0,0,1,.819.157,1.619,1.619,0,0,1,.6.44,1.934,1.934,0,0,1,.363.676,2.875,2.875,0,0,1,.124.866V0H57.612V-3.592a1.215,1.215,0,0,0-.236-.8.885.885,0,0,0-.721-.283,1.415,1.415,0,0,0-.66.16,2.365,2.365,0,0,0-.583.435V0H54.054V-5.643h.83a.334.334,0,0,1,.347.247ZM64.812.088a1.482,1.482,0,0,1-1.13-.415,1.6,1.6,0,0,1-.393-1.147V-4.626h-.577a.265.265,0,0,1-.187-.071.279.279,0,0,1-.077-.214v-.539l.908-.148.286-1.54a.3.3,0,0,1,.1-.17.311.311,0,0,1,.2-.061h.7v1.777h1.507v.968H64.647v3.058a.608.608,0,0,0,.129.413.446.446,0,0,0,.355.148.639.639,0,0,0,.212-.03,1.166,1.166,0,0,0,.148-.063q.063-.033.113-.063a.188.188,0,0,1,.1-.03.155.155,0,0,1,.1.03.459.459,0,0,1,.082.091l.407.66a2.057,2.057,0,0,1-.682.374A2.538,2.538,0,0,1,64.812.088Zm3.57-5.126a2.949,2.949,0,0,1,.726-.5,2.1,2.1,0,0,1,.929-.193,2.023,2.023,0,0,1,.82.157,1.619,1.619,0,0,1,.6.44,1.934,1.934,0,0,1,.363.676,2.875,2.875,0,0,1,.124.866V0H70.581V-3.592a1.215,1.215,0,0,0-.236-.8.885.885,0,0,0-.721-.283,1.415,1.415,0,0,0-.66.16,2.365,2.365,0,0,0-.583.435V0H67.023V-8.173h1.359ZM76.863-3.47a1.635,1.635,0,0,0-.074-.5,1.183,1.183,0,0,0-.223-.41,1.036,1.036,0,0,0-.377-.278,1.293,1.293,0,0,0-.531-.1,1.258,1.258,0,0,0-.927.336,1.645,1.645,0,0,0-.432.951Zm-2.59.819a2.673,2.673,0,0,0,.154.751,1.535,1.535,0,0,0,.319.523,1.249,1.249,0,0,0,.47.308,1.708,1.708,0,0,0,.6.1,1.867,1.867,0,0,0,.569-.077,2.669,2.669,0,0,0,.418-.171q.179-.094.313-.171a.526.526,0,0,1,.261-.077.281.281,0,0,1,.253.127l.391.5a2.264,2.264,0,0,1-.506.443,2.838,2.838,0,0,1-.586.286,3.2,3.2,0,0,1-.621.151A4.45,4.45,0,0,1,75.7.082a3.014,3.014,0,0,1-1.095-.2,2.45,2.45,0,0,1-.88-.577,2.709,2.709,0,0,1-.589-.946,3.661,3.661,0,0,1-.215-1.306,3.124,3.124,0,0,1,.187-1.086,2.612,2.612,0,0,1,.536-.885,2.525,2.525,0,0,1,.853-.6,2.808,2.808,0,0,1,1.136-.22,2.762,2.762,0,0,1,.984.171,2.145,2.145,0,0,1,.776.5,2.306,2.306,0,0,1,.509.8,2.992,2.992,0,0,1,.184,1.086.882.882,0,0,1-.066.415.273.273,0,0,1-.253.107Z" transform="translate(32.679 11.393)" fill="#d6e9ff"/>
  </g>
</svg>
