<svg xmlns="http://www.w3.org/2000/svg" width="155" height="48.224" viewBox="0 0 155 48.224">
  <g id="Group_1612" data-name="Group 1612" transform="translate(0.439)">
    <path id="Rectangle_1609" data-name="Rectangle 1609" d="M6,1A5.006,5.006,0,0,0,1,6V42a5.006,5.006,0,0,0,5,5H149a5.006,5.006,0,0,0,5-5V6a5.006,5.006,0,0,0-5-5H6M6,0H149a6,6,0,0,1,6,6V42a6,6,0,0,1-6,6H6a6,6,0,0,1-6-6V6A6,6,0,0,1,6,0Z" transform="translate(-0.439)" fill="#4d6582"/>
    <path id="Path_1657" data-name="Path 1657" d="M147.659,45.248H5.681A5.684,5.684,0,0,1,0,39.592V5.656A5.677,5.677,0,0,1,5.681,0H147.659a5.679,5.679,0,0,1,5.681,5.656V39.592A5.686,5.686,0,0,1,147.659,45.248Z" transform="translate(0 2.977)" fill="none" fill-rule="evenodd"/>
    <path id="Path_1659" data-name="Path 1659" d="M1677.318,688.343a4.813,4.813,0,1,0,4.827,4.813A4.737,4.737,0,0,0,1677.318,688.343Zm0,7.718a2.924,2.924,0,1,1,2.714-2.917A2.785,2.785,0,0,1,1677.318,696.061Zm-10.53-7.718a4.813,4.813,0,1,0,4.827,4.813A4.737,4.737,0,0,0,1666.788,688.343Zm0,7.718a2.924,2.924,0,1,1,2.714-2.917A2.785,2.785,0,0,1,1666.788,696.061Zm-12.531-6.248v2.037h4.889a4.292,4.292,0,0,1-1.106,2.564,4.989,4.989,0,0,1-3.772,1.5,5.431,5.431,0,0,1,0-10.861,5.218,5.218,0,0,1,3.681,1.458l1.444-1.444A7.1,7.1,0,0,0,1654.28,683a7.468,7.468,0,1,0,0,14.934,6.836,6.836,0,0,0,5.216-2.1,6.759,6.759,0,0,0,1.772-4.776,6.3,6.3,0,0,0-.113-1.269h-6.9S1654.257,689.813,1654.257,689.813Zm51.254,1.585a4.472,4.472,0,0,0-4.121-3.066,4.572,4.572,0,0,0-4.536,4.813,4.7,4.7,0,0,0,4.776,4.813,4.776,4.776,0,0,0,4.008-2.135L1704,694.726a2.737,2.737,0,0,1-2.364,1.332,2.457,2.457,0,0,1-2.338-1.458l6.435-2.666S1705.511,691.4,1705.511,691.4Zm-6.562,1.608a2.642,2.642,0,0,1,2.514-2.8,1.855,1.855,0,0,1,1.786,1.018Zm-5.227,4.663h2.113V683.53h-2.113Zm-3.47-8.257h-.076a3.332,3.332,0,0,0-2.539-1.081,4.812,4.812,0,0,0,0,9.617,3.324,3.324,0,0,0,2.539-1.095h.076v.691c0,1.836-.981,2.827-2.564,2.827a2.668,2.668,0,0,1-2.426-1.709l-1.836.767a4.593,4.593,0,0,0,4.26,2.841c2.477,0,4.576-1.458,4.576-5.016v-8.635h-2v.793Zm-2.426,6.649a2.926,2.926,0,0,1,0-5.831,2.705,2.705,0,0,1,2.564,2.928A2.672,2.672,0,0,1,1687.826,696.061ZM1715.4,683.53h-5.052v14.139h2.113v-5.354h2.942a4.4,4.4,0,1,0,0-8.784Zm.062,6.81h-3v-4.852h3a2.426,2.426,0,1,1,0,4.852Zm13.047-2.023a3.979,3.979,0,0,0-3.772,2.161l1.873.779a2.009,2.009,0,0,1,1.924-1.044,2.04,2.04,0,0,1,2.226,1.822v.149a4.733,4.733,0,0,0-2.2-.542c-2.022,0-4.073,1.106-4.073,3.179a3.268,3.268,0,0,0,3.506,3.117,2.974,2.974,0,0,0,2.688-1.382h.076v1.094h2.037v-5.416C1732.8,689.714,1730.924,688.317,1728.513,688.317Zm-.265,7.743c-.691,0-1.659-.339-1.659-1.207,0-1.094,1.207-1.509,2.237-1.509a3.665,3.665,0,0,1,1.924.477A2.543,2.543,0,0,1,1728.247,696.061Zm11.98-7.442-2.426,6.133h-.076l-2.513-6.133h-2.274l3.772,8.573-2.149,4.765h2.2l5.8-13.337Zm-19.019,9.049h2.113V683.53h-2.113Z" transform="translate(-1600.247 -660.756)" fill="#4d6582" fill-rule="evenodd"/>
    <path id="Path_1660" data-name="Path 1660" d="M400.6,299.474a2.217,2.217,0,0,0-.5,1.545v24.2a2.11,2.11,0,0,0,.51,1.531l.085.074,13.557-13.557v-.3L400.684,299.4Z" transform="translate(-388.865 -287.515)" fill="#4d6582" fill-rule="evenodd"/>
    <path id="Path_1661" data-name="Path 1661" d="M922.822,639.86l-4.522-4.522v-.317l4.522-4.522.1.06,5.349,3.04c1.531.862,1.531,2.287,0,3.16l-5.349,3.04Z" transform="translate(-891.97 -609.58)" fill="#4d6582" fill-rule="evenodd"/>
    <path id="Path_1662" data-name="Path 1662" d="M436.662,806.62l-4.62-4.62L418.4,815.642a1.791,1.791,0,0,0,2.273.074l15.989-9.1" transform="translate(-406.189 -775.924)" fill="#4d6582" fill-rule="evenodd"/>
    <path id="Path_1663" data-name="Path 1663" d="M436.662,295.928l-15.989-9.082a1.773,1.773,0,0,0-2.273.074l13.642,13.628Z" transform="translate(-406.189 -275.423)" fill="#4d6582" fill-rule="evenodd"/>
    <path id="Path_1855" data-name="Path 1855" d="M4.287-1.609,3.473-3.835q-.06-.148-.125-.352t-.13-.44q-.06.236-.125.442t-.125.359l-.81,2.216ZM6.485.917H5.523A.411.411,0,0,1,5.259.836a.5.5,0,0,1-.153-.2L4.606-.73H1.835L1.335.635a.444.444,0,0,1-.143.194A.4.4,0,0,1,.928.917H-.044L2.589-5.774H3.857ZM12.82-5.774V.917h-.639a.562.562,0,0,1-.248-.049A.579.579,0,0,1,11.742.7L8.248-3.756q.028.305.028.565V.917h-1.1V-5.774h.652a1.164,1.164,0,0,1,.137.007.328.328,0,0,1,.1.028.334.334,0,0,1,.086.06.964.964,0,0,1,.093.1L11.756-1.1q-.014-.162-.023-.319t-.009-.292V-5.774Zm7.431,3.346a3.618,3.618,0,0,1-.245,1.351,3.1,3.1,0,0,1-.689,1.06,3.085,3.085,0,0,1-1.069.689A3.769,3.769,0,0,1,16.86.917H14.31V-5.774h2.55a3.738,3.738,0,0,1,1.388.248,3.129,3.129,0,0,1,1.069.689,3.079,3.079,0,0,1,.689,1.057A3.618,3.618,0,0,1,20.251-2.428Zm-1.277,0a3.116,3.116,0,0,0-.146-.988,2.047,2.047,0,0,0-.421-.74,1.837,1.837,0,0,0-.666-.465,2.285,2.285,0,0,0-.882-.162h-1.3V-.073h1.3a2.285,2.285,0,0,0,.882-.162A1.837,1.837,0,0,0,18.407-.7a2.047,2.047,0,0,0,.421-.74A3.116,3.116,0,0,0,18.974-2.428Zm4.4-.162a1.927,1.927,0,0,0,.613-.088,1.185,1.185,0,0,0,.43-.243.976.976,0,0,0,.252-.368,1.272,1.272,0,0,0,.083-.467.95.95,0,0,0-.335-.782,1.6,1.6,0,0,0-1.025-.273h-.8V-2.59Zm3.2,3.507H25.448a.493.493,0,0,1-.463-.25L23.578-1.475a.494.494,0,0,0-.174-.171.608.608,0,0,0-.28-.051h-.532V.917H21.348V-5.774h2.041a4.242,4.242,0,0,1,1.168.141,2.235,2.235,0,0,1,.8.4,1.548,1.548,0,0,1,.46.608,2,2,0,0,1,.148.78,2.02,2.02,0,0,1-.1.639,1.848,1.848,0,0,1-.287.546,1.933,1.933,0,0,1-.463.43,2.321,2.321,0,0,1-.627.292,1.216,1.216,0,0,1,.222.164,1.168,1.168,0,0,1,.185.224Zm7.015-3.346a3.74,3.74,0,0,1-.243,1.363A3.2,3.2,0,0,1,32.657.019a3.122,3.122,0,0,1-1.069.715A3.619,3.619,0,0,1,30.2.991,3.606,3.606,0,0,1,28.816.734,3.147,3.147,0,0,1,27.745.019a3.21,3.21,0,0,1-.692-1.085,3.709,3.709,0,0,1-.245-1.363,3.709,3.709,0,0,1,.245-1.363,3.21,3.21,0,0,1,.692-1.085,3.147,3.147,0,0,1,1.071-.715A3.606,3.606,0,0,1,30.2-5.848a3.755,3.755,0,0,1,.958.118,3.363,3.363,0,0,1,.824.333,3.045,3.045,0,0,1,.673.523,3.178,3.178,0,0,1,.507.687,3.368,3.368,0,0,1,.317.824A3.919,3.919,0,0,1,33.587-2.428Zm-1.273,0a3.071,3.071,0,0,0-.148-.988,2.117,2.117,0,0,0-.421-.743,1.8,1.8,0,0,0-.664-.467,2.285,2.285,0,0,0-.882-.162,2.285,2.285,0,0,0-.882.162,1.824,1.824,0,0,0-.666.467,2.1,2.1,0,0,0-.423.743,3.071,3.071,0,0,0-.148.988,3.071,3.071,0,0,0,.148.988,2.074,2.074,0,0,0,.423.74,1.837,1.837,0,0,0,.666.465,2.285,2.285,0,0,0,.882.162,2.285,2.285,0,0,0,.882-.162A1.815,1.815,0,0,0,31.746-.7a2.093,2.093,0,0,0,.421-.74A3.071,3.071,0,0,0,32.315-2.428ZM35.933.917H34.684V-5.774h1.249Zm7.436-3.346a3.618,3.618,0,0,1-.245,1.351,3.1,3.1,0,0,1-.689,1.06,3.085,3.085,0,0,1-1.069.689,3.769,3.769,0,0,1-1.388.245h-2.55V-5.774h2.55a3.738,3.738,0,0,1,1.388.248,3.13,3.13,0,0,1,1.069.689,3.079,3.079,0,0,1,.689,1.057A3.618,3.618,0,0,1,43.369-2.428Zm-1.277,0a3.116,3.116,0,0,0-.146-.988,2.047,2.047,0,0,0-.421-.74,1.837,1.837,0,0,0-.666-.465,2.285,2.285,0,0,0-.882-.162h-1.3V-.073h1.3a2.285,2.285,0,0,0,.882-.162A1.837,1.837,0,0,0,41.525-.7a2.047,2.047,0,0,0,.421-.74A3.116,3.116,0,0,0,42.092-2.428Zm7.848.819-.814-2.226q-.06-.148-.125-.352t-.13-.44q-.06.236-.125.442t-.125.359l-.81,2.216Zm2.2,2.527h-.962a.411.411,0,0,1-.264-.081.5.5,0,0,1-.153-.2l-.5-1.365H47.488l-.5,1.365a.444.444,0,0,1-.143.194.4.4,0,0,1-.264.088h-.972l2.633-6.691H49.51ZM55.007-2.41a1.875,1.875,0,0,0,.6-.086,1.131,1.131,0,0,0,.423-.245.993.993,0,0,0,.252-.389,1.488,1.488,0,0,0,.083-.511,1.349,1.349,0,0,0-.083-.486.961.961,0,0,0-.25-.37,1.112,1.112,0,0,0-.421-.234,1.992,1.992,0,0,0-.6-.081h-.93v2.4Zm0-3.364a3.819,3.819,0,0,1,1.161.157,2.236,2.236,0,0,1,.81.44,1.743,1.743,0,0,1,.474.676,2.327,2.327,0,0,1,.155.861,2.378,2.378,0,0,1-.162.891,1.848,1.848,0,0,1-.486.7,2.259,2.259,0,0,1-.812.453,3.627,3.627,0,0,1-1.141.162h-.93V.917H52.832V-5.774ZM60.736-2.41a1.875,1.875,0,0,0,.6-.086,1.131,1.131,0,0,0,.423-.245.993.993,0,0,0,.252-.389,1.488,1.488,0,0,0,.083-.511,1.349,1.349,0,0,0-.083-.486.96.96,0,0,0-.25-.37,1.112,1.112,0,0,0-.421-.234,1.992,1.992,0,0,0-.6-.081h-.93v2.4Zm0-3.364a3.819,3.819,0,0,1,1.161.157,2.236,2.236,0,0,1,.81.44,1.743,1.743,0,0,1,.474.676,2.327,2.327,0,0,1,.155.861,2.378,2.378,0,0,1-.162.891,1.848,1.848,0,0,1-.486.7,2.259,2.259,0,0,1-.812.453,3.627,3.627,0,0,1-1.141.162h-.93V.917H58.561V-5.774ZM72.66-2.428a3.74,3.74,0,0,1-.243,1.363A3.2,3.2,0,0,1,71.73.019a3.122,3.122,0,0,1-1.069.715,3.619,3.619,0,0,1-1.388.257A3.606,3.606,0,0,1,67.889.734,3.147,3.147,0,0,1,66.818.019a3.21,3.21,0,0,1-.692-1.085,3.709,3.709,0,0,1-.245-1.363,3.709,3.709,0,0,1,.245-1.363,3.21,3.21,0,0,1,.692-1.085,3.147,3.147,0,0,1,1.071-.715,3.606,3.606,0,0,1,1.384-.257,3.755,3.755,0,0,1,.958.118,3.363,3.363,0,0,1,.824.333,3.045,3.045,0,0,1,.673.523,3.178,3.178,0,0,1,.507.687,3.368,3.368,0,0,1,.317.824A3.919,3.919,0,0,1,72.66-2.428Zm-1.273,0a3.071,3.071,0,0,0-.148-.988,2.117,2.117,0,0,0-.421-.743,1.8,1.8,0,0,0-.664-.467,2.285,2.285,0,0,0-.882-.162,2.285,2.285,0,0,0-.882.162,1.824,1.824,0,0,0-.666.467,2.1,2.1,0,0,0-.423.743,3.071,3.071,0,0,0-.148.988,3.071,3.071,0,0,0,.148.988,2.074,2.074,0,0,0,.423.74,1.837,1.837,0,0,0,.666.465,2.285,2.285,0,0,0,.882.162,2.285,2.285,0,0,0,.882-.162A1.815,1.815,0,0,0,70.818-.7a2.093,2.093,0,0,0,.421-.74A3.071,3.071,0,0,0,71.388-2.428ZM79.4-5.774V.917h-.639a.562.562,0,0,1-.248-.049A.579.579,0,0,1,78.319.7L74.826-3.756q.028.305.028.565V.917h-1.1V-5.774h.652a1.163,1.163,0,0,1,.136.007.328.328,0,0,1,.1.028.333.333,0,0,1,.086.06.965.965,0,0,1,.093.1L78.333-1.1q-.014-.162-.023-.319T78.3-1.707V-5.774Z" transform="translate(46.561 16)" fill="#4d6582"/>
  </g>
</svg>
