<svg xmlns="http://www.w3.org/2000/svg" width="180.01" height="35" viewBox="0 0 180.01 35"><defs><style>.a{fill:#1b4f8e;}</style></defs><g transform="translate(-0.57 -0.5)"><path class="a" d="M44.26,5.45H55.27l-.88,5H49.88l-.84,4.74h4.01l-.84,4.76H48.2l-1.85,10.5h-6.5Z"/><path class="a" d="M64.13,5.45l-4.41,25h-6.5l4.41-25h6.5Z"/><path class="a" d="M67.53,5.45h4.6a33.611,33.611,0,0,1,6.17.36,3.425,3.425,0,0,1,2.34,1.81c.51.97.58,2.52.21,4.66a8.2,8.2,0,0,1-1.42,3.92,4.606,4.606,0,0,1-3.07,1.21,3.939,3.939,0,0,1,2.37,1.28,3.14,3.14,0,0,1,.57,1.47,23.081,23.081,0,0,1-.49,3.7l-1.16,6.6H71.6l1.46-8.31a5.414,5.414,0,0,0,.12-2.49c-.15-.32-.68-.48-1.57-.48L69.62,30.45h-6.5Zm5.75,4.28-.98,5.56a3.19,3.19,0,0,0,1.59-.3q.5-.3.78-1.95l.24-1.37q.21-1.185-.15-1.56A2.025,2.025,0,0,0,73.28,9.73Z"/><path class="a" d="M97.79,13.02H91.75l.33-1.85a3.569,3.569,0,0,0,.06-1.65.7.7,0,0,0-.71-.36,1.2,1.2,0,0,0-.97.48,3.226,3.226,0,0,0-.56,1.45,3.918,3.918,0,0,0,0,1.89,3.864,3.864,0,0,0,1.57,1.53q3.885,2.58,4.72,4.23c.55,1.1.62,2.88.19,5.33a10.5,10.5,0,0,1-1.32,3.94,6.321,6.321,0,0,1-2.79,2.13,10.611,10.611,0,0,1-4.32.86,8.292,8.292,0,0,1-4.28-.99,3.766,3.766,0,0,1-1.97-2.52,12.589,12.589,0,0,1,.19-4.34l.29-1.63h6.04l-.53,3.04a3.64,3.64,0,0,0-.06,1.8c.12.27.4.4.83.4a1.311,1.311,0,0,0,1.06-.51,3.266,3.266,0,0,0,.58-1.51c.26-1.47.23-2.43-.09-2.89a14.806,14.806,0,0,0-2.64-2.27,23.3,23.3,0,0,1-2.8-2.33,4.288,4.288,0,0,1-.95-2.01,8.3,8.3,0,0,1,.06-3.28,10.48,10.48,0,0,1,1.47-4.2,6.3,6.3,0,0,1,2.74-2.08,10.4,10.4,0,0,1,4.09-.75,9.243,9.243,0,0,1,4.17.82,3.532,3.532,0,0,1,2,2.06,10.394,10.394,0,0,1-.17,4.22Z"/><path class="a" d="M114.53,5.45l-.88,5h-3.86l-3.53,20h-6.5l3.53-20H99.45l.88-5h14.2Z"/><path class="a" d="M116.8,5.45h4.6a33.611,33.611,0,0,1,6.17.36,3.425,3.425,0,0,1,2.34,1.81c.51.97.58,2.52.21,4.66a8.2,8.2,0,0,1-1.42,3.92,4.606,4.606,0,0,1-3.07,1.21A3.939,3.939,0,0,1,128,18.69a3.14,3.14,0,0,1,.57,1.47,23.082,23.082,0,0,1-.49,3.7l-1.16,6.6h-6.04l1.46-8.31a5.414,5.414,0,0,0,.12-2.49c-.16-.32-.68-.48-1.58-.48l-1.99,11.27h-6.5Zm5.75,4.28-.98,5.56a3.19,3.19,0,0,0,1.59-.3q.5-.3.78-1.95l.24-1.37q.21-1.185-.15-1.56A2.025,2.025,0,0,0,122.55,9.73Z"/><path class="a" d="M145.86,5.45l-.69,25h-6.64l.44-4.5h-2.33l-1.18,4.5h-6.72l7.73-25h9.39Zm-6.28,16.08q.255-4.245.86-10.5-2.265,7.185-3.1,10.5Z"/><path class="a" d="M151.48,5.45h4.86a29.6,29.6,0,0,1,6.29.43,3.933,3.933,0,0,1,2.28,1.42,3.753,3.753,0,0,1,.69,2.2,34.967,34.967,0,0,1-.62,4.76l-1.54,8.76a22.186,22.186,0,0,1-1.11,4.5,4.446,4.446,0,0,1-1.42,1.78,5.518,5.518,0,0,1-2.1.89,18.184,18.184,0,0,1-3.53.26h-8.2Zm5.74,4.28-2.9,16.45a2.25,2.25,0,0,0,1.83-.56,9.228,9.228,0,0,0,.86-3.06l1.72-9.71a14.116,14.116,0,0,0,.28-2.18.869.869,0,0,0-.37-.71A2.828,2.828,0,0,0,157.22,9.73Z"/><path class="a" d="M169.74,5.45h10.84l-.88,5h-4.34l-.84,4.74h4.06l-.84,4.76h-4.06l-.97,5.5h4.77l-.88,5H165.33Z"/><path class="a" d="M17.83,35.5V.5L.57,14.62l11.96-3.39Z"/><path class="a" d="M20.07,35.5V.5L37.33,14.62,25.37,11.23Z"/></g></svg>