<?xml version="1.0" encoding="UTF-8"?>
<svg id="guide2" xmlns="http://www.w3.org/2000/svg" viewBox="0 0 250 230">
  <defs>
    <style>
      .cls-1 {
        stroke-dasharray: 0 0 .05 15.22;
      }

      .cls-1, .cls-2, .cls-3, .cls-4, .cls-5 {
        stroke-linecap: round;
        stroke-linejoin: round;
      }

      .cls-1, .cls-2, .cls-5 {
        fill: none;
      }

      .cls-1, .cls-3, .cls-4, .cls-5 {
        stroke-width: 7px;
      }

      .cls-1, .cls-5 {
        stroke: #f58642;
      }

      .cls-2 {
        stroke: #d1e3ff;
        stroke-width: 5px;
      }

      .cls-3 {
        fill: #d1e3ff;
      }

      .cls-3, .cls-4 {
        stroke: #5280ea;
      }

      .cls-4 {
        fill: #fff;
      }
    </style>
  </defs>
  <path class="cls-3" d="m164.21,119.02l5.43,30.2s2.71,7.8-4.75,11.54c-7.46,3.73-17.98-4.75-17.98-4.75l-22.73-23.75"/>
  <path class="cls-4" d="m129.6,89.5s17.98-7.12,34.27-10.52c16.29-3.39,32.15-3.31,39.7,4.75,7.46,9.08-.68,16.62-10.86,21.71-10.18,5.09-51.91,22.73-96.02,32.91-44.11,10.18-56.66,12.55-67.18,8.48-10.52-4.07,6.11-11.54,6.11-11.54l-10.18-14.93s-6.16-9.16,5.4-9.84,26.49,10.18,26.49,10.18l25.45-12.55s-32.91-19.85-35.29-21.37c-2.37-1.53-6.11-4.75-1.02-8.48,5.09-3.73,10.18-5.77,29.86-1.36,19.11,4.28,53.27,12.55,53.27,12.55Z"/>
  <g>
    <line class="cls-5" x1="189.91" y1="87.23" x2="189.89" y2="87.24"/>
    <line class="cls-1" x1="175.54" y1="92.31" x2="96.34" y2="120.31"/>
    <line class="cls-5" x1="89.16" y1="122.84" x2="89.14" y2="122.85"/>
  </g>
  <g>
    <path class="cls-2" d="m23.91,68.03c0-12.34,10.01-22.35,22.35-22.35,7.34,0,13.85,3.54,17.93,9"/>
    <path class="cls-2" d="m56.02,47.94c3.04-5.59,8.44-9.86,15.16-11.23,12.09-2.47,23.9,5.32,26.38,17.42"/>
    <path class="cls-2" d="m91.07,61.38c1.9-3.5,5.28-6.17,9.49-7.03,7.57-1.55,14.96,3.33,16.51,10.9"/>
  </g>
  <g>
    <path class="cls-2" d="m140.36,59.28c.93-5.46,4.48-10.37,9.92-12.79,8.63-3.84,18.74.05,22.58,8.68"/>
    <path class="cls-2" d="m161.11,45.37c2.33-4.28,6.46-7.55,11.61-8.6,9.26-1.89,18.3,4.07,20.19,13.33"/>
    <path class="cls-2" d="m190.9,52.21c1.23-.93,2.68-1.6,4.29-1.93,5.79-1.19,11.45,2.55,12.63,8.34"/>
  </g>
  <g>
    <path class="cls-2" d="m33.47,186.18c1.1-6.48,5.32-12.31,11.78-15.18,10.25-4.56,22.25.06,26.81,10.31"/>
    <path class="cls-2" d="m58.1,169.67c2.76-5.08,7.67-8.96,13.78-10.21,10.99-2.25,21.72,4.84,23.97,15.82"/>
    <path class="cls-2" d="m93.47,177.79c1.46-1.1,3.18-1.9,5.1-2.29,6.88-1.41,13.59,3.03,15,9.9"/>
  </g>
  <g>
    <path class="cls-2" d="m107.79,197.5c0-7.44,6.03-13.47,13.47-13.47s13.47,6.03,13.47,13.47"/>
    <path class="cls-2" d="m127.15,185.39c1.83-3.37,5.08-5.94,9.14-6.77,7.29-1.49,14.4,3.21,15.89,10.5"/>
    <path class="cls-2" d="m148.26,193.49c1.15-2.11,3.18-3.72,5.72-4.24,4.56-.93,9.01,2.01,9.95,6.57"/>
  </g>
  <g>
    <path class="cls-2" d="m184.37,162.55c-3-5.08-3.82-11.4-1.72-17.4,3.78-10.79,15.6-16.47,26.39-12.69"/>
    <path class="cls-2" d="m211.72,141.08c-1.88-3.18-2.39-7.13-1.08-10.89,2.37-6.75,9.76-10.31,16.51-7.94"/>
  </g>
</svg>