<?xml version="1.0" encoding="UTF-8"?>
<svg id="guide2" xmlns="http://www.w3.org/2000/svg" viewBox="0 0 250 230">
  <defs>
    <style>
      .cls-1 {
        fill: #d1e3ff;
      }

      .cls-1, .cls-2 {
        stroke: #5280ea;
        stroke-linecap: round;
        stroke-linejoin: round;
        stroke-width: 7px;
      }

      .cls-2 {
        fill: #fff;
      }
    </style>
  </defs>
  <path class="cls-2" d="m55.78,72.03l-28.68,43.52,97.66,63.77s9.42,8.34,15.37-.1c1.99-2.82,1.79-6.74-1.49-9.49-7.27-6.06-16.68-14.08-16.68-14.08,0,0,15.25,12.91,16.68,14.08,6.02,4.91,13.4,7.1,16.68,2.72,2.04-2.72-.36-6.71-2.53-8.68-7.66-6.95-20.81-18.94-20.81-18.94,0,0,12.87,11.91,20.81,18.94,4.3,3.82,9.5,3.11,11.78.94,2.38-2.28,2.27-9.6-1.25-13.06-5.13-5.06-18.71-17.05-18.71-17.05,0,0,11.91,10.48,18.71,17.05,4.11,3.98,11.83,3.5,14.53.83,5.59-5.53-2.76-12.87-2.76-12.87l-19.65-19.65s-16.04-4.81-19.85-8.82c-3.81-4.01-8.02-16.85-8.02-16.85h-10.03l-12.23,9.53s-6.52,5.51-11.63.7c-4.77-4.49-2.81-10.43-.4-13.44,2.41-3.01,16.44-14.84,16.44-14.84,0,0,10.03-8.82,28.08.6s24.27,12.63,24.27,12.63l33.29-12.63,18.25,47.93-34.61,19.5"/>
  <path class="cls-2" d="m111.43,75.14s-33.19,8.12-34.19,8.52-20.45-13.14-20.45-13.14l-1.01,1.52"/>
  <path class="cls-2" d="m70.55,130.3c-8.44,3.87-11.71,19.84-7.82,23.48,3.89,3.65,11.97.57,16.41-13.18,2.31-6.79-3.3-12.73-8.59-10.3Z"/>
  <path class="cls-2" d="m82.44,139.04c-8.44,3.87-11.71,19.84-7.82,23.48,3.89,3.65,11.97.57,16.41-13.18,2.31-6.79-3.3-12.73-8.59-10.3Z"/>
  <path class="cls-2" d="m89.39,145.81c-7.07,6.02-5.89,22.27-1.16,24.73,4.73,2.46,11.67-2.7,12.22-17.14.39-7.16-6.63-11.35-11.06-7.58Z"/>
  <path class="cls-2" d="m109.16,171.61c1.3-2.68,1.88-6.51,1.13-11.51-.79-6.03-8.39-8.56-12.15-4.81-6,6-2.33,18.28,2.64,20.81"/>
  <path class="cls-1" d="m100.79,176.11s4.19,2.93,10.78,2.54c5.24-.31,7.24-3.15,7.24-3.15"/>
  <polygon class="cls-1" points="179.93 77.06 208.71 134.31 226.16 125.74 200.44 67.26 179.93 77.06"/>
  <polygon class="cls-1" points="68.18 71.85 35.12 129.41 17.36 112.88 51.65 62.67 68.18 71.85"/>
</svg>