<svg xmlns="http://www.w3.org/2000/svg" width="43.14" height="35.95" viewBox="0 0 43.14 35.95">
  <g id="Wechat" transform="translate(0.5 -1.52)">
    <g id="_Group_" data-name="&lt;Group&gt;" transform="translate(0.5 2.52)">
      <circle id="_Path_" data-name="&lt;Path&gt;" cx="0.894" cy="0.894" r="0.894" transform="translate(8.944 7.119)" fill="#4e6580" stroke="#4e6580" stroke-linecap="round" stroke-linejoin="round" stroke-width="1"/>
      <circle id="_Path_2" data-name="&lt;Path&gt;" cx="0.894" cy="0.894" r="0.894" transform="translate(17.887 7.119)" fill="#4e6580" stroke="#4e6580" stroke-linecap="round" stroke-linejoin="round" stroke-width="1"/>
      <path id="_Path_3" data-name="&lt;Path&gt;" d="M34.542,19.338c0-5.366-5.6-9.838-12.521-9.838S9.5,13.972,9.5,19.338s5.6,9.838,12.521,9.838a15.544,15.544,0,0,0,4.2-.572l4.74,2.361L29.48,27.226a9.337,9.337,0,0,0,5.062-7.888Z" transform="translate(6.598 2.985)" fill="none" stroke="#4e6580" stroke-linecap="round" stroke-linejoin="round" stroke-width="2"/>
      <circle id="_Path_4" data-name="&lt;Path&gt;" cx="0.894" cy="0.894" r="0.894" transform="translate(23.253 17.851)" fill="#4e6580" stroke="#4e6580" stroke-linecap="round" stroke-linejoin="round" stroke-width="1"/>
      <circle id="_Path_5" data-name="&lt;Path&gt;" cx="0.894" cy="0.894" r="0.894" transform="translate(32.197 17.851)" fill="#4e6580" stroke="#4e6580" stroke-linecap="round" stroke-linejoin="round" stroke-width="1"/>
      <path id="_Path_6" data-name="&lt;Path&gt;" d="M30.014,15.041h0c0-6.922-6.6-12.521-14.757-12.521S.5,8.083.5,15.005a11.949,11.949,0,0,0,5.778,9.838l-2.2,4.472,5.1-2.916a16.921,16.921,0,0,0,6.082,1.127,17.439,17.439,0,0,0,1.789-.107" transform="translate(-0.5 -2.52)" fill="none" stroke="#4e6580" stroke-linecap="round" stroke-linejoin="round" stroke-width="2"/>
    </g>
  </g>
</svg>
