<svg xmlns="http://www.w3.org/2000/svg" xmlns:xlink="http://www.w3.org/1999/xlink" width="100" height="100" viewBox="0 0 100 100">
  <defs>
    <clipPath id="clip-path">
      <rect id="Rectangle_1658" data-name="Rectangle 1658" width="89" height="72.522" fill="none"/>
    </clipPath>
  </defs>
  <g id="Group_1729" data-name="Group 1729" transform="translate(-159 -779)">
    <g id="Group_1710" data-name="Group 1710" transform="translate(164.5 792.739)">
      <path id="Path_1915" data-name="Path 1915" d="M40.587,89.2,34.6,95.239V89.2Z" transform="translate(-18.027 -46.475)" fill="#fc8d42"/>
      <path id="Path_1916" data-name="Path 1916" d="M48.912,96.7v13.508H35.5Z" transform="translate(-18.496 -50.383)" fill="#fc8d42"/>
      <g id="Group_1709" data-name="Group 1709">
        <g id="Group_1708" data-name="Group 1708" clip-path="url(#clip-path)">
          <path id="Path_1917" data-name="Path 1917" d="M86.986,72.522H7.9A7.983,7.983,0,0,1,0,64.571V1.774a1.871,1.871,0,0,1,3.736,0v62.8a4.221,4.221,0,0,0,4.215,4.215H87.034a1.871,1.871,0,0,1,.192,3.736h-.24" transform="translate(0 0)" fill="#5282f0"/>
          <path id="Path_1918" data-name="Path 1918" d="M94.484,85.769H81.416a1.677,1.677,0,0,1-1.676-1.676V51.4a1.676,1.676,0,0,1,1.676-1.676H94.484A1.677,1.677,0,0,1,96.16,51.4V84.092a1.677,1.677,0,0,1-1.676,1.676M83.093,82.416h9.714V53.077H83.093Z" transform="translate(-41.545 -25.906)" fill="#5282f0"/>
          <path id="Path_1919" data-name="Path 1919" d="M145.5,68.033H132.437a1.694,1.694,0,0,1-1.694-1.694v-49a1.694,1.694,0,0,1,1.694-1.694H145.5a1.694,1.694,0,0,1,1.694,1.694v49a1.694,1.694,0,0,1-1.694,1.694m-11.372-3.388h9.678V19.036h-9.678Z" transform="translate(-68.117 -8.153)" fill="#5282f0"/>
          <path id="Path_1920" data-name="Path 1920" d="M22.514,75.421a2.641,2.641,0,0,1-1.882-.781l-.048-.048a2.776,2.776,0,0,1-.067-3.88L47.858,43.18,61.916,57.238,86.494,32.795,83.51,29.868l6.749-1.777,6.615-1.777L95.1,33.03l-1.777,6.682L90.4,36.785,61.864,65.18,47.81,51.126,24.482,74.592a2.739,2.739,0,0,1-1.969.829" transform="translate(-10.295 -13.71)" fill="#fc8d42"/>
          <path id="Path_1921" data-name="Path 1921" d="M94.54,26.2l-1.36,5.154-1.36,5.106-2.438-2.438L60.847,62.42,46.788,48.361,22.8,72.493a1.855,1.855,0,0,1-1.312.551,1.714,1.714,0,0,1-1.221-.5l-.048-.048a1.836,1.836,0,0,1-.048-2.577l.048-.048,26.613-26.8L60.89,57.127,86.8,31.357l-2.481-2.438,5.154-1.36Zm2.639-2.649-3.123.838L89,25.753l-5.144,1.356-3.19.843,2.352,2.309,1.13,1.106L60.9,54.483,48.168,41.746l-1.332-1.332-1.327,1.336L18.9,68.551l-.043.043-.024.024-.019.024a3.708,3.708,0,0,0,.091,5.183l.048.048a3.568,3.568,0,0,0,2.543,1.054,3.705,3.705,0,0,0,2.634-1.1L46.8,51.025,59.525,63.752l1.322,1.322,1.327-1.317L89.386,36.679,90.5,37.795l2.3,2.3.838-3.142L95,31.845l1.36-5.159Z" transform="translate(-9.273 -12.272)" fill="#fff"/>
        </g>
      </g>
    </g>
    <rect id="Rectangle_1667" data-name="Rectangle 1667" width="100" height="100" transform="translate(159 779)" fill="#ba8d8d" opacity="0.002"/>
  </g>
</svg>
