<?xml version="1.0" encoding="utf-8"?>
<!-- Generator: Adobe Illustrator 25.1.0, SVG Export Plug-In . SVG Version: 6.00 Build 0)  -->
<svg version="1.1" xmlns="http://www.w3.org/2000/svg" xmlns:xlink="http://www.w3.org/1999/xlink" x="0px" y="0px"
	 viewBox="0 0 41.17 41.17" style="enable-background:new 0 0 41.17 41.17;" xml:space="preserve">
<style type="text/css">
	.st0{display:none;}
	.st1{display:inline;fill:#4E6580;}
	.st2{display:inline;}
	.st3{fill:#4E6580;}
	.st4{fill:#7CD4E9;}
	.st5{font-family:'SFProText-Regular';}
	.st6{font-size:27.9258px;}
</style>
<g id="mail" class="st0">
	<path class="st1" d="M17.82,20.81c0-0.03,0-0.05,0-0.08c0-0.12-0.01-0.25-0.03-0.37c-0.1-0.63-0.47-1.14-0.93-1.47
		c-0.41-0.25-0.99-0.42-1.79-0.42h-1.13h-3.05H4.51c-1.8,0-2.4,1.56-2.4,2.27V22v6.57c0,0.04-0.01,0.08-0.01,0.11v1.18
		c0,1.32,1.15,2.23,2.18,2.23h4.69h2h4.75c0.87,0,2.12-0.88,2.12-2.27v-0.86c0,0,0,0,0,0C17.84,28.96,17.82,21.67,17.82,20.81z
		 M4.1,20.74c0-0.13,0.13-0.23,0.2-0.27l5.33,0l2.26,0l3.72,0c0.02,0,0.05,0.03,0.09,0.06c0.05,0.01,0.08,0.02,0.09,0.02
		c0.01,0.01,0.02,0.07,0.03,0.14c0,0,0,0.01,0,0.01v0.05v1.11c-0.14,0.66-2.25,2.42-4.84,4.1c-0.33,0.21-0.67,0.43-1.01,0.64
		c-0.33-0.2-0.66-0.4-0.99-0.61c-2.6-1.65-4.72-3.39-4.87-4.03c0,0,0-0.01,0-0.01V20.74z M15.84,29.82c0,0.12-0.14,0.23-0.22,0.27
		l-4.65,0l-2,0l-4.67,0c-0.06-0.01-0.2-0.13-0.2-0.23v-1.13c0-0.04,0.01-0.08,0.01-0.11l0-3.69c1.42,1.26,3.34,2.5,4.86,3.4
		c0.17,0.1,0.33,0.2,0.49,0.29c0.16,0.09,0.33,0.13,0.5,0.13c0.18,0,0.35-0.05,0.51-0.14c0.16-0.09,0.33-0.2,0.5-0.3
		c1.52-0.92,3.44-2.18,4.86-3.45c0.01,2.05,0.01,4.1,0.01,4.1V29.82z"/>
	<path class="st1" d="M27.56,14.6H15.26c-0.15,0-0.74,0-0.89,0c-2.31,0-5.42,1.46-6.05,3.96l2.09,0.08
		c0.77-1.55,2.92-2.04,4.01-2.04c3.13,0,5.68,2.73,5.68,6.08V33.3H8.69v-2.19H6.83v3.19c0,0.55,0.42,1,0.93,1h27.71
		c0.51,0,0.93-0.45,0.93-1V24.07C36.4,18.85,32.43,14.6,27.56,14.6z M19.35,16.6h8.21c3.84,0,6.97,3.35,6.97,7.47v9.23H21.95V22.69
		C21.95,20.26,20.94,18.09,19.35,16.6z"/>
	<path class="st1" d="M29.06,29.58c-1.68,0-3.05-1.37-3.05-3.05s1.37-3.05,3.05-3.05s3.05,1.37,3.05,3.05S30.74,29.58,29.06,29.58z
		 M29.06,25.48c-0.58,0-1.05,0.47-1.05,1.05c0,0.58,0.47,1.05,1.05,1.05s1.05-0.47,1.05-1.05C30.11,25.95,29.64,25.48,29.06,25.48z"
		/>
	<path class="st1" d="M29.06,25.48c-0.55,0-1-0.45-1-1V8.96c0-0.55,0.45-1,1-1s1,0.45,1,1v15.52
		C30.06,25.03,29.61,25.48,29.06,25.48z"/>
	<path class="st1" d="M38.96,12.35h-9.91c-0.55,0-1-0.45-1-1V7.59c0-0.55,0.45-1,1-1h9.91c0.55,0,1,0.45,1,1v3.76
		C39.96,11.9,39.52,12.35,38.96,12.35z M30.06,10.35h7.91V8.59h-7.91V10.35z"/>
</g>
<g id="phone" class="st0">
	<g class="st2">
		<path class="st3" d="M26.79,37.49H14.07c-2.07,0-3.76-1.6-3.76-3.57V7.27c0-1.97,1.69-3.57,3.76-3.57h12.72
			c2.07,0,3.76,1.6,3.76,3.57v26.66C30.54,35.89,28.86,37.49,26.79,37.49z M14.07,5.7c-0.97,0-1.76,0.7-1.76,1.57v26.66
			c0,0.86,0.79,1.57,1.76,1.57h12.72c0.97,0,1.76-0.7,1.76-1.57V7.27c0-0.86-0.79-1.57-1.76-1.57H14.07z"/>
	</g>
	<g class="st2">
		<path class="st3" d="M26.24,31.54H14.62c-0.55,0-1-0.45-1-1V9.92c0-0.55,0.45-1,1-1h11.62c0.55,0,1,0.45,1,1v20.62
			C27.24,31.09,26.79,31.54,26.24,31.54z M15.62,29.54h9.62V10.92h-9.62V29.54z"/>
	</g>
	<g class="st2">
		<path class="st3" d="M20.43,32.44L20.43,32.44c0.71,0,1.29,0.58,1.29,1.29v0c0,0.71-0.58,1.29-1.29,1.29h0
			c-0.71,0-1.29-0.58-1.29-1.29v0C19.14,33.02,19.71,32.44,20.43,32.44z"/>
	</g>
	<g class="st2">
		<path class="st3" d="M22.38,7.51c0,0.19-0.15,0.34-0.34,0.34h-3.22c-0.19,0-0.34-0.15-0.34-0.34V7.46c0-0.19,0.15-0.34,0.34-0.34
			h3.22c0.19,0,0.34,0.15,0.34,0.34V7.51z"/>
	</g>
</g>
<g id="email" class="st0">
	<g class="st2">
		<path class="st3" d="M32.65,33.96H8.32c-1.65,0-3.5-1.55-3.5-3.62v-2.5c0-0.05,0.01-0.17,0.02-0.22l0-16.68c0-1.16,1-3.7,3.99-3.7
			h22.43c1.3,0,4.75,0,4.75,3.87c0,1.83,0.04,17.33,0.04,17.33c0,0,0,0,0,0v1.83C36.04,32.56,33.85,33.96,32.65,33.96z M8.82,9.23
			c-1.83,0-1.99,1.7-1.99,1.72l0,16.76c0,0.05-0.01,0.15-0.02,0.2l0,2.43c0,0.92,0.91,1.62,1.5,1.62h24.33
			c0.27-0.03,1.39-0.63,1.39-1.7v-1.83C34.04,28.2,34,12.91,34,11.1c0-1.32-0.38-1.87-2.75-1.87H8.82z"/>
	</g>
	<g class="st2">
		<path class="st3" d="M20.41,26.86c-0.17,0-0.35-0.04-0.5-0.13c-2.52-1.46-15.09-8.94-15.09-13.22v-2.58c0-2.3,2.16-3.7,3.34-3.7
			h24.33c1.53,0,3.23,1.33,3.47,3.17c0.02,0.08,0.03,0.16,0.03,0.24v2.71c0,4.29-12.56,11.89-15.07,13.37
			C20.76,26.82,20.58,26.86,20.41,26.86z M8.15,9.23c-0.26,0.03-1.34,0.63-1.34,1.7v2.58c0,0.45,0.5,2.29,6.88,6.83
			c2.79,1.98,5.6,3.69,6.71,4.36c5.81-3.47,13.58-9.09,13.58-11.35v-2.5c0-0.92-0.91-1.62-1.5-1.62H8.15z"/>
	</g>
</g>
<g id="fax" class="st0">
	<g class="st2">
		<path class="st3" d="M29.05,37.9H11.81c-2.11,0-3.83-1.72-3.83-3.83V7.13c0-2.11,1.72-3.83,3.83-3.83h12.27
			c0.26,0,0.5,0.1,0.69,0.27l7.81,7.4c0.2,0.19,0.31,0.45,0.31,0.73v22.37C32.88,36.18,31.16,37.9,29.05,37.9z M11.81,5.29
			c-1.01,0-1.83,0.82-1.83,1.83v26.94c0,1.01,0.82,1.83,1.83,1.83h17.24c1.01,0,1.83-0.82,1.83-1.83V12.12l-7.21-6.83H11.81z"/>
	</g>
	<g class="st2">
		<path class="st3" d="M12.27,12.3v-2.08l-0.17-0.04c-0.06-0.01-0.11-0.03-0.14-0.06C11.92,10.1,11.9,10.06,11.9,10V9.69h0.37V9.54
			c0-0.15,0.02-0.29,0.07-0.41c0.05-0.12,0.12-0.22,0.21-0.31c0.09-0.09,0.2-0.15,0.33-0.2c0.13-0.05,0.28-0.07,0.44-0.07
			c0.06,0,0.12,0,0.18,0.01c0.05,0.01,0.11,0.02,0.17,0.04l-0.01,0.38c0,0.03-0.01,0.05-0.02,0.07c-0.01,0.02-0.03,0.03-0.05,0.04
			c-0.02,0.01-0.04,0.02-0.06,0.02c-0.02,0.01-0.04,0.01-0.07,0.01c-0.07,0-0.13,0.01-0.18,0.02c-0.05,0.01-0.1,0.04-0.13,0.07
			c-0.04,0.03-0.06,0.08-0.08,0.14s-0.03,0.13-0.03,0.21v0.12h0.61v0.53h-0.59v2.07H12.27z"/>
		<path class="st3" d="M15.79,12.3c-0.07,0-0.13-0.01-0.17-0.03c-0.04-0.02-0.07-0.06-0.09-0.13L15.47,12
			c-0.07,0.06-0.13,0.1-0.19,0.15s-0.12,0.08-0.19,0.11c-0.06,0.03-0.13,0.05-0.21,0.07c-0.07,0.01-0.15,0.02-0.24,0.02
			c-0.12,0-0.23-0.02-0.33-0.05s-0.18-0.08-0.25-0.14c-0.07-0.06-0.12-0.14-0.16-0.23s-0.06-0.19-0.06-0.31
			c0-0.09,0.02-0.19,0.07-0.29s0.13-0.19,0.25-0.27c0.12-0.08,0.27-0.15,0.47-0.2c0.2-0.05,0.44-0.08,0.74-0.08v-0.11
			c0-0.15-0.03-0.27-0.09-0.33c-0.06-0.07-0.15-0.1-0.27-0.1c-0.09,0-0.17,0.01-0.23,0.03s-0.11,0.04-0.16,0.07
			c-0.05,0.03-0.09,0.05-0.13,0.07c-0.04,0.02-0.1,0.03-0.16,0.03c-0.05,0-0.1-0.01-0.14-0.04c-0.04-0.03-0.07-0.06-0.09-0.1
			l-0.14-0.24c0.16-0.14,0.33-0.24,0.53-0.31c0.19-0.07,0.4-0.1,0.62-0.1c0.16,0,0.3,0.03,0.43,0.08s0.23,0.12,0.32,0.21
			c0.09,0.09,0.16,0.2,0.2,0.33s0.07,0.26,0.07,0.41v1.63H15.79z M14.89,11.83c0.1,0,0.19-0.02,0.26-0.05
			c0.08-0.04,0.15-0.09,0.23-0.17v-0.36c-0.16,0-0.29,0.01-0.39,0.03c-0.1,0.02-0.18,0.05-0.24,0.08c-0.06,0.03-0.1,0.06-0.12,0.1
			s-0.03,0.08-0.03,0.13c0,0.09,0.02,0.15,0.07,0.19C14.72,11.81,14.79,11.83,14.89,11.83z"/>
		<path class="st3" d="M17.32,10.95l-0.84-1.26h0.75c0.05,0,0.1,0.01,0.12,0.02c0.03,0.01,0.05,0.04,0.07,0.07l0.47,0.77
			c0.01-0.03,0.02-0.06,0.04-0.09c0.02-0.03,0.03-0.06,0.05-0.09l0.33-0.58c0.02-0.04,0.05-0.07,0.07-0.08
			c0.03-0.02,0.06-0.02,0.1-0.02h0.72l-0.84,1.23l0.88,1.39h-0.75c-0.06,0-0.1-0.01-0.13-0.04s-0.06-0.06-0.08-0.1l-0.47-0.8
			c-0.01,0.03-0.02,0.06-0.03,0.08s-0.02,0.05-0.04,0.07l-0.38,0.65c-0.02,0.04-0.05,0.07-0.08,0.09c-0.03,0.03-0.08,0.04-0.13,0.04
			h-0.7L17.32,10.95z"/>
	</g>
	<g class="st2">
		<path class="st3" d="M31.88,12.65h-4.97c-2.11,0-3.83-1.72-3.83-3.83V4.29c0-0.4,0.24-0.76,0.6-0.92
			c0.37-0.16,0.79-0.08,1.08,0.19l7.81,7.35c0.3,0.28,0.4,0.72,0.24,1.1C32.66,12.4,32.29,12.65,31.88,12.65z M25.08,6.61v2.2
			c0,1.01,0.82,1.83,1.83,1.83h2.45L25.08,6.61z"/>
	</g>
	<g class="st2">
		<line class="st4" x1="12.12" y1="19.01" x2="28.47" y2="19.01"/>
		<path class="st3" d="M28.47,20.01H12.12c-0.55,0-1-0.45-1-1s0.45-1,1-1h16.36c0.55,0,1,0.45,1,1S29.03,20.01,28.47,20.01z"/>
	</g>
	<g class="st2">
		<line class="st4" x1="12.12" y1="24.12" x2="28.47" y2="24.12"/>
		<path class="st3" d="M28.47,25.12H12.12c-0.55,0-1-0.45-1-1s0.45-1,1-1h16.36c0.55,0,1,0.45,1,1S29.03,25.12,28.47,25.12z"/>
	</g>
	<g class="st2">
		<line class="st4" x1="12.12" y1="29.55" x2="28.47" y2="29.55"/>
		<path class="st3" d="M28.47,30.55H12.12c-0.55,0-1-0.45-1-1s0.45-1,1-1h16.36c0.55,0,1,0.45,1,1S29.03,30.55,28.47,30.55z"/>
	</g>
</g>
<g id="building" class="st0">
	<g class="st2">
		<path class="st3" d="M26.4,38.38H6.92c-0.55,0-1-0.45-1-1V11.93c0-0.4,0.24-0.77,0.62-0.92l19.48-8.12
			c0.31-0.13,0.66-0.1,0.94,0.09c0.28,0.19,0.45,0.5,0.45,0.83v33.57C27.4,37.93,26.96,38.38,26.4,38.38z M7.92,36.38H25.4V5.31
			L7.92,12.6V36.38z"/>
	</g>
	<g class="st2">
		<path class="st3" d="M33.94,38.38H26.4c-0.55,0-1-0.45-1-1V3.81c0-0.41,0.25-0.78,0.64-0.93c0.38-0.15,0.82-0.05,1.1,0.26
			l7.53,8.24c0.17,0.18,0.26,0.43,0.26,0.67v25.33C34.94,37.93,34.49,38.38,33.94,38.38z M27.4,36.38h5.53V12.44L27.4,6.39V36.38z"
			/>
	</g>
	<g class="st2">
		<path class="st3" d="M18.89,38.38h-5.28c-0.55,0-1-0.45-1-1v-4.93c0-0.49,0.36-0.91,0.85-0.99l5.28-0.83
			c0.29-0.04,0.58,0.04,0.8,0.23c0.22,0.19,0.35,0.47,0.35,0.76v5.76C19.89,37.93,19.45,38.38,18.89,38.38z M14.61,36.38h3.28v-3.59
			l-3.28,0.52V36.38z"/>
	</g>
	<g class="st2">
		<path class="st3" d="M10.08,29.5c-0.46,0-0.87-0.32-0.97-0.78c-0.12-0.54,0.22-1.07,0.76-1.2l12.25-2.76
			c0.54-0.12,1.07,0.22,1.2,0.76c0.12,0.54-0.22,1.07-0.76,1.2L10.3,29.48C10.23,29.5,10.15,29.5,10.08,29.5z"/>
	</g>
	<g class="st2">
		<path class="st3" d="M10.08,23.27c-0.44,0-0.84-0.29-0.96-0.74C8.97,22,9.28,21.45,9.82,21.3l12.25-3.34
			c0.53-0.15,1.08,0.17,1.23,0.7c0.15,0.53-0.17,1.08-0.7,1.23l-12.25,3.34C10.26,23.26,10.17,23.27,10.08,23.27z"/>
	</g>
	<g class="st2">
		<path class="st3" d="M10.08,17.12c-0.4,0-0.78-0.24-0.93-0.64c-0.2-0.52,0.06-1.09,0.58-1.29l12.25-4.69
			c0.52-0.2,1.09,0.06,1.29,0.58c0.2,0.52-0.06,1.09-0.58,1.29l-12.25,4.69C10.32,17.1,10.2,17.12,10.08,17.12z"/>
	</g>
</g>
<g id="Layer_7" class="st0">
	<g class="st2">
		<path class="st3" d="M21.28,5c5.49,0,9.16,3.17,9.16,7.6c0,3.07-1.52,5.21-4.25,6.84c-2.63,1.54-3.37,2.57-3.37,4.55v1.14h-4.65
			l-0.02-1.36c-0.18-3.01,0.98-4.81,3.75-6.44c2.49-1.5,3.33-2.57,3.33-4.55c0-2.09-1.68-3.59-4.21-3.59
			c-2.59,0-4.25,1.56-4.41,4.01h-4.71C12.05,8.45,15.32,5,21.28,5z M17.39,31.5c0-1.94,1.32-3.21,3.33-3.21
			c2.04,0,3.33,1.26,3.33,3.21c0,1.92-1.28,3.19-3.33,3.19C18.71,34.69,17.39,33.43,17.39,31.5z"/>
	</g>
</g>
<g id="Layer_8" class="st0">
	<g class="st2">
		<path class="st3" d="M21.31,4.82c5.69,0,9.44,3.16,9.44,7.75c0,2.98-1.45,5.07-4.25,6.72c-2.64,1.53-3.38,2.51-3.38,4.41v1.05
			h-5.27l-0.04-1.09c-0.26-3.18,0.83-4.97,3.58-6.58c2.56-1.53,3.34-2.49,3.34-4.33s-1.51-3.16-3.78-3.16c-2.29,0-3.8,1.41-3.92,3.6
			h-5.39C11.75,8.24,15.21,4.82,21.31,4.82z M17.08,30.98c0-2.11,1.39-3.4,3.62-3.4s3.6,1.29,3.6,3.4c0,2.09-1.37,3.38-3.6,3.38
			S17.08,33.07,17.08,30.98z"/>
	</g>
</g>
<g id="Layer_9" class="st0">
	<g class="st2">
		<path class="st3" d="M19.66,28.58c-2.83,0-4.66,1.73-4.66,4.4c0,2.62,1.87,4.38,4.66,4.38c2.82,0,4.64-1.72,4.64-4.38
			C24.29,30.31,22.47,28.58,19.66,28.58z M19.69,35.36c-0.98,0-2.62-0.31-2.62-2.38c0-2.09,1.64-2.4,2.62-2.4
			c0.97,0,2.6,0.31,2.6,2.4C22.29,35.05,20.67,35.36,19.69,35.36z"/>
		<path class="st3" d="M20.31,3.82c-6.36,0-10.55,3.67-10.66,9.35c-0.01,0.27,0.1,0.53,0.29,0.72c0.19,0.19,0.45,0.3,0.71,0.3h5.39
			c0.53,0,0.97-0.42,1-0.95c0.09-1.66,1.18-2.65,2.92-2.65c1.69,0,2.78,0.85,2.78,2.16c0,1.33-0.41,2.02-2.85,3.47
			c-3.17,1.86-4.35,5.04-4.07,8.48l0.04,1.09c0.02,0.54,0.46,0.96,1,0.96h5.27c0.55,0,1-0.45,1-1v-1.05c0-1.31,0.27-3.04,2.89-4.55
			c3.19-1.88,4.75-4.36,4.75-7.58C30.75,7.42,26.46,3.82,20.31,3.82z M25,18.43c-2.57,1.49-3.88,3.71-3.88,6.28v0.05h-3.3
			l-0.01-0.17c-0.22-2.7,0.59-5.17,3.09-6.64c2.54-1.52,3.83-2.73,3.83-5.19c0-2.45-1.96-4.16-4.78-4.16c-2.45,0-4.28,1.41-4.78,3.6
			h-3.45c0.52-4.01,3.66-6.37,8.59-6.37c5.05,0,8.44,2.71,8.44,6.75C28.75,15.09,27.59,16.9,25,18.43z"/>
	</g>
</g>
<g id="Layer_10">
	<g>
		<path class="st3" d="M20.62,37.29c-9.1,0-16.5-7.4-16.5-16.5s7.4-16.5,16.5-16.5s16.5,7.4,16.5,16.5S29.71,37.29,20.62,37.29z
			 M20.62,6.29c-8,0-14.5,6.5-14.5,14.5s6.5,14.5,14.5,14.5s14.5-6.5,14.5-14.5S28.61,6.29,20.62,6.29z"/>
	</g>
	<g>
		<path class="st3" d="M20.4,31.08c-1.24,0-2.15-0.9-2.15-2.15c0-1.25,0.9-2.16,2.15-2.16c1.24,0,2.13,0.91,2.13,2.16
			C22.53,30.17,21.63,31.08,20.4,31.08z M21.41,24.75h-2.39c-0.14,0-0.25-0.11-0.25-0.25v-1.25c-0.01-1.85,0.84-3.16,2.85-4.36
			c1.53-0.94,2.07-1.74,2.07-3.07c0-1.6-1.24-2.68-3.09-2.68c-1.91,0-3.13,1.1-3.27,2.93c-0.01,0.13-0.12,0.23-0.25,0.23h-2.33
			c-0.07,0-0.13-0.03-0.18-0.08c-0.05-0.05-0.07-0.12-0.07-0.19c0.17-3.41,2.55-5.53,6.2-5.53c3.5,0,6.03,2.18,6.03,5.19
			c0,2.08-1,3.73-2.97,4.92c-1.63,0.96-2.1,1.64-2.1,3.01v0.89C21.66,24.63,21.54,24.75,21.41,24.75z"/>
	</g>
</g>
<g id="Layer_11" class="st0">
	<text transform="matrix(1 0 0 1 7.569 26.0842)" class="st1 st5 st6">?</text>
</g>
</svg>
