<svg xmlns="http://www.w3.org/2000/svg" xmlns:xlink="http://www.w3.org/1999/xlink" width="100" height="100" viewBox="0 0 100 100">
  <defs>
    <clipPath id="clip-path">
      <rect id="Rectangle_1660" data-name="Rectangle 1660" width="88.051" height="89.452" fill="none"/>
    </clipPath>
  </defs>
  <g id="Group_1728" data-name="Group 1728" transform="translate(-159 -1053)">
    <g id="Group_1712" data-name="Group 1712" transform="translate(164.975 1058.548)">
      <g id="Group_1711" data-name="Group 1711" clip-path="url(#clip-path)">
        <path id="Path_1922" data-name="Path 1922" d="M92.652,176.388a1.224,1.224,0,0,1-.467,1.682,1.438,1.438,0,0,1-.607.14l-5.232-.047-5.232-.047A1.206,1.206,0,0,1,79.9,176.9a1.072,1.072,0,0,1,.187-.654l2.663-4.531,2.663-4.531a1.224,1.224,0,0,1,1.682-.467,1.485,1.485,0,0,1,.467.467l2.569,4.578Z" transform="translate(-42.578 -88.757)" fill="#5282f0"/>
        <rect id="Rectangle_1659" data-name="Rectangle 1659" width="2.336" height="84.082" transform="translate(1.821 72.447) rotate(-89.691)" fill="#5282f0"/>
        <path id="Path_1923" data-name="Path 1923" d="M2.336,145.2l26.392.14a2.336,2.336,0,0,1,0,4.671l-26.392-.14A2.342,2.342,0,0,1,0,147.536,2.313,2.313,0,0,1,2.336,145.2" transform="translate(0 -77.375)" fill="#5282f0"/>
        <path id="Path_1924" data-name="Path 1924" d="M124.636,146.5l26.3.28a2.312,2.312,0,1,1-.047,4.624l-26.3-.28a2.333,2.333,0,0,1-2.289-2.336,2.246,2.246,0,0,1,2.336-2.289" transform="translate(-65.172 -78.066)" fill="#5282f0"/>
        <path id="Path_1925" data-name="Path 1925" d="M20.563,98.814A17.657,17.657,0,1,1,38.314,81.25a17.643,17.643,0,0,1-17.75,17.563m.14-32A14.387,14.387,0,1,0,35,81.3,14.394,14.394,0,0,0,20.7,66.816" transform="translate(-1.598 -33.838)" fill="#5282f0"/>
        <path id="Path_1926" data-name="Path 1926" d="M127.263,96.514a17.657,17.657,0,1,1,17.75-17.563,17.643,17.643,0,0,1-17.75,17.563m.14-32A14.387,14.387,0,1,0,141.7,79,14.394,14.394,0,0,0,127.4,64.516" transform="translate(-58.457 -32.612)" fill="#5282f0"/>
        <path id="Path_1927" data-name="Path 1927" d="M71.963,35.314A17.657,17.657,0,1,1,89.714,17.75a17.643,17.643,0,0,1-17.75,17.563M72.15,3.27A14.387,14.387,0,1,0,86.444,17.75,14.394,14.394,0,0,0,72.15,3.27" transform="translate(-28.989 0)" fill="#5282f0"/>
        <path id="Path_1928" data-name="Path 1928" d="M36.868,94.784a1.6,1.6,0,0,0-.327-1.121,2.958,2.958,0,0,0-1.214-.747,17.412,17.412,0,0,1-1.635-.747,5.935,5.935,0,0,1-1.261-.841,5.029,5.029,0,0,1-.841-1.121,4.484,4.484,0,0,1-.28-1.541,3.315,3.315,0,0,1,1.028-2.476,4.413,4.413,0,0,1,2.709-1.121V83.2h1.4v1.915a4.206,4.206,0,0,1,2.569,1.355,4.078,4.078,0,0,1,.934,2.8H36.915a2.332,2.332,0,0,0-.374-1.448,1.241,1.241,0,0,0-1.028-.514,1.016,1.016,0,0,0-.934.374,1.368,1.368,0,0,0-.327,1.028,1.4,1.4,0,0,0,.374,1.028,3.55,3.55,0,0,0,1.214.747,16.536,16.536,0,0,1,1.588.747,4.74,4.74,0,0,1,1.261.888,3.532,3.532,0,0,1,1.168,2.663,3.274,3.274,0,0,1-.981,2.476,4.4,4.4,0,0,1-2.663,1.121v1.775h-1.4V98.381a4.555,4.555,0,0,1-2.99-1.355,4.4,4.4,0,0,1-1.028-2.99h3.036a2.246,2.246,0,0,0,.467,1.541,1.668,1.668,0,0,0,1.261.561,1.139,1.139,0,0,0,.934-.374,1.3,1.3,0,0,0,.374-.981" transform="translate(-16.408 -44.336)" fill="#fc8d42"/>
        <path id="Path_1929" data-name="Path 1929" d="M143.768,91.931a1.6,1.6,0,0,0-.327-1.121,3.653,3.653,0,0,0-1.215-.794,17.41,17.41,0,0,1-1.635-.747,5.936,5.936,0,0,1-1.261-.841,5.029,5.029,0,0,1-.841-1.121,4.293,4.293,0,0,1-.28-1.541,3.5,3.5,0,0,1,1.028-2.476,4.261,4.261,0,0,1,2.709-1.121V80.3h1.4v1.915a3.984,3.984,0,0,1,2.569,1.355,4.077,4.077,0,0,1,.934,2.8h-3.036a2.332,2.332,0,0,0-.374-1.448,1.132,1.132,0,0,0-1.028-.514,1.016,1.016,0,0,0-.934.374,1.592,1.592,0,0,0-.327,1.028,1.405,1.405,0,0,0,.374,1.028,4.292,4.292,0,0,0,1.261.747,16.536,16.536,0,0,1,1.588.747,4.741,4.741,0,0,1,1.261.888,3.222,3.222,0,0,1,.841,1.121,2.933,2.933,0,0,1,.28,1.541,3.274,3.274,0,0,1-.981,2.476,4.4,4.4,0,0,1-2.663,1.121v1.775h-1.4V95.434a4.555,4.555,0,0,1-2.99-1.355,4.4,4.4,0,0,1-1.028-2.99h2.99a2.246,2.246,0,0,0,.467,1.541,1.7,1.7,0,0,0,1.308.561,1.2,1.2,0,0,0,.934-.374.994.994,0,0,0,.374-.888" transform="translate(-73.374 -42.791)" fill="#fc8d42"/>
        <path id="Path_1930" data-name="Path 1930" d="M88.261,29.684a1.6,1.6,0,0,0-.327-1.121,3.477,3.477,0,0,0-1.261-.747,17.411,17.411,0,0,1-1.635-.747,5.935,5.935,0,0,1-1.261-.841,3.768,3.768,0,0,1-.794-1.121,4.293,4.293,0,0,1-.28-1.541A3.316,3.316,0,0,1,83.73,21.09a4.281,4.281,0,0,1,2.756-1.121V18.1h1.4v1.915a3.984,3.984,0,0,1,2.569,1.355,4.078,4.078,0,0,1,.934,2.8H88.355a2.332,2.332,0,0,0-.374-1.448,1.241,1.241,0,0,0-1.028-.514,1.016,1.016,0,0,0-.934.374,1.592,1.592,0,0,0-.327,1.028,1.389,1.389,0,0,0,.374,1.074,3.55,3.55,0,0,0,1.214.747,11.822,11.822,0,0,1,1.541.747,4.74,4.74,0,0,1,1.261.888A3.4,3.4,0,0,1,91.2,29.731a3.274,3.274,0,0,1-.981,2.476,4.4,4.4,0,0,1-2.663,1.121V35.1H86.113V33.281a4.555,4.555,0,0,1-2.99-1.355,4.4,4.4,0,0,1-1.028-2.99h3.036a2.246,2.246,0,0,0,.467,1.541,1.668,1.668,0,0,0,1.261.561,1.2,1.2,0,0,0,.934-.374,1.013,1.013,0,0,0,.467-.981" transform="translate(-43.746 -9.645)" fill="#fc8d42"/>
      </g>
    </g>
    <rect id="Rectangle_1670" data-name="Rectangle 1670" width="100" height="100" transform="translate(159 1053)" fill="#ba8d8d" opacity="0.002"/>
  </g>
</svg>
