<?xml version="1.0" encoding="UTF-8"?>
<svg id="guide2" xmlns="http://www.w3.org/2000/svg" viewBox="0 0 250 230">
  <defs>
    <style>
      .cls-1, .cls-2, .cls-3, .cls-4, .cls-5 {
        stroke-linecap: round;
        stroke-linejoin: round;
      }

      .cls-1, .cls-2, .cls-3, .cls-5 {
        stroke: #5280ea;
      }

      .cls-1, .cls-3, .cls-4 {
        fill: none;
      }

      .cls-1, .cls-5 {
        stroke-width: 3px;
      }

      .cls-2 {
        stroke-width: 5px;
      }

      .cls-2, .cls-6 {
        fill: #fff;
      }

      .cls-3 {
        stroke-dasharray: 0 0 .05 16;
        stroke-width: 7px;
      }

      .cls-7 {
        letter-spacing: .03em;
      }

      .cls-8, .cls-5 {
        fill: #d1e3ff;
      }

      .cls-9, .cls-10 {
        fill: #5280ea;
      }

      .cls-4 {
        stroke: #d1e3ff;
        stroke-width: 2px;
      }

      .cls-11 {
        letter-spacing: .03em;
      }

      .cls-12, .cls-10 {
        font-size: 18px;
      }

      .cls-12, .cls-10, .cls-13 {
        font-family: Futura-Bold, Futura;
        font-weight: 700;
      }

      .cls-12, .cls-13 {
        fill: #f68742;
      }

      .cls-13 {
        font-size: 12px;
      }
    </style>
  </defs>
  <circle class="cls-3" cx="132.4" cy="110.44" r="65.61"/>
  <g>
    <g>
      <path class="cls-6" d="m141.46,58.38h85.94c3.08,0,5.59,2.5,5.59,5.59v51.07c0,3.08-2.5,5.59-5.59,5.59h-85.94c-3.08,0-5.59-2.5-5.59-5.59v-51.07c0-3.08,2.5-5.59,5.59-5.59Z"/>
      <path class="cls-9" d="m227.4,60.88c1.7,0,3.09,1.39,3.09,3.09v51.07c0,1.7-1.39,3.09-3.09,3.09h-85.94c-1.7,0-3.09-1.39-3.09-3.09v-51.07c0-1.7,1.39-3.09,3.09-3.09h85.94m0-5h-85.94c-4.46,0-8.09,3.63-8.09,8.09v51.07c0,4.46,3.63,8.09,8.09,8.09h85.94c4.46,0,8.09-3.63,8.09-8.09v-51.07c0-4.46-3.63-8.09-8.09-8.09h0Z"/>
    </g>
    <rect class="cls-8" x="138.33" y="70.69" width="92.06" height="11.25"/>
    <text class="cls-13" transform="translate(190.89 112.07)"><tspan x="0" y="0">DEBIT</tspan></text>
    <path id="path3789" class="cls-9" d="m212.29,86.54c-2.88,0-5.46,1.49-5.46,4.25,0,3.16,4.57,3.38,4.57,4.97,0,.67-.77,1.27-2.08,1.27-1.86,0-3.25-.84-3.25-.84l-.59,2.78s1.6.71,3.73.71c3.15,0,5.63-1.57,5.63-4.37,0-3.34-4.59-3.56-4.59-5.03,0-.52.63-1.1,1.94-1.1,1.47,0,2.68.61,2.68.61l.58-2.69s-1.31-.56-3.15-.56h0Zm-26.37.2l-.07.41s1.21.22,2.3.66c1.41.51,1.51.8,1.74,1.72l2.58,9.95h3.46l5.33-12.74h-3.45l-3.42,8.66-1.4-7.34c-.13-.84-.78-1.32-1.57-1.32h-5.5Zm16.73,0l-2.71,12.74h3.29l2.7-12.74h-3.28Zm18.35,0c-.79,0-1.21.42-1.52,1.17l-4.82,11.57h3.45l.67-1.93h4.2l.41,1.93h3.04l-2.66-12.74h-2.77Zm.45,3.44l1.02,4.78h-2.74l1.72-4.78h0Z"/>
  </g>
  <g>
    <g>
      <path class="cls-2" d="m43.16,90.9h-19.25c-4.1,0-7.42-2.99-7.42-6.67v-48.82c0-3.69,3.32-6.67,7.42-6.67h82.4c4.1,0,7.42,2.99,7.42,6.67v48.82c0,3.69-3.32,6.67-7.42,6.67h-19.57"/>
      <path class="cls-2" d="m113.74,41.55c-7.64,0-13.83-5.74-13.83-12.82"/>
      <path class="cls-2" d="m99.91,90.9c0-7.08,6.19-12.82,13.83-12.82"/>
      <path class="cls-2" d="m30.2,28.73c0,7.08-6.14,12.82-13.71,12.82"/>
      <path class="cls-2" d="m16.49,78.08c7.57,0,13.71,5.74,13.71,12.82"/>
    </g>
    <text class="cls-12" transform="translate(34.51 65.59)"><tspan x="0" y="0">TRADE</tspan></text>
    <g>
      <path class="cls-5" d="m58.63,99.92v13.75c0,.51.59.8.99.48l5.02-3.92c.14-.11.31-.14.47-.11h0s.09.02.13.03c.05.02.1.04.14.07l5.22,3.95c.06.05.13.08.19.1.21.06.43.01.58-.13.12-.11.2-.27.2-.46v-13.77"/>
      <g>
        <path class="cls-5" d="m65.69,75.63l.45.71c.23.36.73.42,1.04.13l.62-.58c.36-.34.96-.19,1.12.29l.26.8c.13.41.6.59.98.39l.74-.41c.44-.24.98.06,1.01.56l.05.84c.03.43.44.72.85.62l.82-.21c.48-.12.93.3.84.79l-.16.83c-.08.42.24.81.67.81h.84c.5,0,.83.52.62.97l-.36.76c-.18.39.03.85.45.95l.82.21c.48.12.67.71.36,1.1l-.54.65c-.27.33-.18.83.2,1.03l.74.41c.44.24.48.86.07,1.15l-.68.5c-.35.25-.38.76-.07,1.05l.62.58c.36.34.25.95-.22,1.13l-.79.31c-.4.16-.55.64-.33,1l.45.71c.27.42,0,.98-.49,1.04l-.84.11c-.42.05-.7.48-.56.89l.26.8c.15.48-.24.95-.73.89l-.84-.11c-.42-.05-.79.29-.77.72l.05.84c.03.5-.47.86-.93.68l-.79-.31c-.4-.16-.84.09-.92.51l-.16.83c-.09.49-.67.72-1.07.42l-.68-.5c-.35-.25-.84-.13-1.02.26l-.36.76c-.21.45-.82.53-1.14.14l-.54-.65c-.27-.33-.78-.33-1.05,0l-.54.65c-.32.39-.93.31-1.14-.14l-.36-.76c-.18-.39-.67-.51-1.02-.26l-.68.5c-.4.29-.98.07-1.07-.42l-.16-.83c-.08-.42-.52-.66-.92-.51l-.79.31c-.47.18-.96-.18-.93-.68l.05-.84c.03-.43-.34-.77-.77-.72l-.84.11c-.5.06-.89-.41-.73-.89l.26-.8c.13-.41-.14-.83-.56-.89l-.84-.11c-.5-.06-.76-.62-.49-1.04l.45-.71c.23-.36.07-.84-.33-1l-.79-.31c-.47-.18-.58-.79-.22-1.13l.62-.58c.31-.29.28-.8-.07-1.05l-.68-.5c-.4-.29-.37-.91.07-1.15l.74-.41c.38-.21.47-.7.2-1.03l-.54-.65c-.32-.39-.13-.97.36-1.1l.82-.21c.41-.11.63-.56.45-.95l-.36-.76c-.21-.45.12-.97.62-.97h.84c.43,0,.75-.39.67-.81l-.16-.83c-.09-.49.36-.91.84-.79l.82.21c.41.11.82-.19.85-.62l.05-.84c.03-.5.57-.8,1.01-.56l.74.41c.38.21.85.02.98-.39l.26-.8c.15-.48.75-.63,1.12-.29l.62.58c.31.29.81.23,1.04-.13l.45-.71c.27-.42.88-.42,1.15,0Z"/>
        <circle class="cls-5" cx="65.11" cy="88.64" r="6.16"/>
      </g>
    </g>
  </g>
  <g>
    <g>
      <path class="cls-6" d="m65.4,137.77h85.43c3.08,0,5.59,2.5,5.59,5.59v50.75c0,3.08-2.5,5.59-5.59,5.59h-85.43c-3.08,0-5.59-2.5-5.59-5.59v-50.75c0-3.08,2.5-5.59,5.59-5.59Z"/>
      <path class="cls-9" d="m150.83,140.27c1.7,0,3.09,1.39,3.09,3.09v50.75c0,1.7-1.39,3.09-3.09,3.09h-85.43c-1.7,0-3.09-1.39-3.09-3.09v-50.75c0-1.7,1.39-3.09,3.09-3.09h85.43m0-5h-85.43c-4.46,0-8.09,3.63-8.09,8.09v50.75c0,4.46,3.63,8.09,8.09,8.09h85.43c4.46,0,8.09-3.63,8.09-8.09v-50.75c0-4.46-3.63-8.09-8.09-8.09h0Z"/>
    </g>
    <path class="cls-1" d="m107.75,184.28c12.99,1.21,15.82-5.5,16.09-7.15,1.2-7.48-7.78-6-8.46-1.09-.86,6.22,9.34,6.95,11.24,6.67,4.61-.69,2.2-4.16,7.08-4.45,4.09-.24,2.3,4.81,10.97,2.14"/>
    <text class="cls-10" transform="translate(71.78 187.36)"><tspan x="0" y="0">$$</tspan></text>
    <text class="cls-12" transform="translate(75.73 162.51)"><tspan class="cls-11" x="0" y="0">C</tspan><tspan x="12.58" y="0">HE</tspan><tspan class="cls-7" x="37.84" y="0">C</tspan><tspan x="50.42" y="0">K</tspan></text>
    <line class="cls-4" x1="143.73" y1="190.35" x2="105.71" y2="190.35"/>
  </g>
</svg>