<svg xmlns="http://www.w3.org/2000/svg" xmlns:xlink="http://www.w3.org/1999/xlink" width="100" height="100" viewBox="0 0 100 100">
  <defs>
    <clipPath id="clip-path">
      <rect id="Rectangle_1665" data-name="Rectangle 1665" width="89.5" height="78.307" fill="none"/>
    </clipPath>
  </defs>
  <g id="Group_1724" data-name="Group 1724" transform="translate(-955 -779)">
    <rect id="Rectangle_1657" data-name="Rectangle 1657" width="100" height="100" transform="translate(955 779)" fill="#ba8d8d" opacity="0.002"/>
    <g id="Group_1723" data-name="Group 1723" transform="translate(960 790)">
      <g id="Group_1722" data-name="Group 1722" clip-path="url(#clip-path)">
        <path id="Path_1976" data-name="Path 1976" d="M23.79,25.4h0a.788.788,0,0,1,.79.79V36.48a.79.79,0,0,1-1.58,0V26.19a.791.791,0,0,1,.79-.79" transform="translate(-12.619 -13.936)" fill="#5282f0"/>
        <path id="Path_1977" data-name="Path 1977" d="M23.79,126.2h0a.788.788,0,0,1,.79.79v7.673a.79.79,0,1,1-1.58,0V126.99a.791.791,0,0,1,.79-.79" transform="translate(-12.619 -69.241)" fill="#5282f0"/>
        <path id="Path_1978" data-name="Path 1978" d="M0,43.49V83.659a.788.788,0,0,0,.79.79H21.551a.788.788,0,0,0,.79-.79V43.49a.788.788,0,0,0-.79-.79H.79a.791.791,0,0,0-.79.79m17.489,36.9H4.852a.788.788,0,0,1-.79-.79V47.552a.788.788,0,0,1,.79-.79H17.489a.788.788,0,0,1,.79.79V79.6a.788.788,0,0,1-.79.79" transform="translate(0 -23.428)" fill="#5282f0"/>
        <path id="Path_1979" data-name="Path 1979" d="M99.69,78.7h0a.788.788,0,0,1,.79.79v8.53a.79.79,0,1,1-1.58,0V79.49a.791.791,0,0,1,.79-.79" transform="translate(-54.263 -43.18)" fill="#5282f0"/>
        <path id="Path_1980" data-name="Path 1980" d="M99.69,153h0a.788.788,0,0,1,.79.79v7.673a.79.79,0,1,1-1.58,0V153.79a.791.791,0,0,1,.79-.79" transform="translate(-54.263 -83.946)" fill="#5282f0"/>
        <path id="Path_1981" data-name="Path 1981" d="M75.9,92.89V122.9a.788.788,0,0,0,.79.79H97.451a.788.788,0,0,0,.79-.79V92.89a.788.788,0,0,0-.79-.79H76.69a.791.791,0,0,0-.79.79m17.444,26.742H80.752a.788.788,0,0,1-.79-.79V96.952a.788.788,0,0,1,.79-.79H93.344a.788.788,0,0,1,.79.79v21.89a.788.788,0,0,1-.79.79" transform="translate(-41.644 -50.532)" fill="#fc8d42"/>
        <path id="Path_1982" data-name="Path 1982" d="M172.59,0h0a.788.788,0,0,1,.79.79V10.855a.79.79,0,1,1-1.58,0V.79a.791.791,0,0,1,.79-.79" transform="translate(-94.26 0)" fill="#5282f0"/>
        <path id="Path_1983" data-name="Path 1983" d="M172.59,126.7h0a.788.788,0,0,1,.79.79v6.228a.79.79,0,0,1-1.58,0V127.49a.791.791,0,0,1,.79-.79" transform="translate(-94.26 -69.516)" fill="#5282f0"/>
        <path id="Path_1984" data-name="Path 1984" d="M148.8,17.49V69.619a.788.788,0,0,0,.79.79h20.761a.788.788,0,0,0,.79-.79V17.49a.788.788,0,0,0-.79-.79H149.59a.791.791,0,0,0-.79.79m17.489,48.857H153.7a.788.788,0,0,1-.79-.79V21.6a.788.788,0,0,1,.79-.79h12.592a.788.788,0,0,1,.79.79v43.96a.788.788,0,0,1-.79.79" transform="translate(-81.641 -9.163)" fill="#5282f0"/>
      </g>
    </g>
  </g>
</svg>
