<svg xmlns="http://www.w3.org/2000/svg" width="163" height="150" viewBox="0 0 163 150">
  <g id="Group_8" data-name="Group 8" transform="translate(-17 -377)">
    <rect id="Rectangle_4" data-name="Rectangle 4" width="163" height="150" transform="translate(17 377)" fill="#fff" opacity="0"/>
    <g id="icon_SM_switch2" transform="translate(-4.095 357.648)">
      <rect id="Rectangle_2" data-name="Rectangle 2" width="106.916" height="33.185" rx="16.592" transform="translate(51.155 42.823)" fill="#fff"/>
      <path id="Path_8" data-name="Path 8" d="M139.276,81.308h-32.8a2.482,2.482,0,1,1,0-4.965h32.8a16.709,16.709,0,1,0,0-33.419H67.914a16.709,16.709,0,0,0,0,33.419h9.9a2.482,2.482,0,0,1,0,4.965h-9.9a21.674,21.674,0,0,1,0-43.348h71.362a21.674,21.674,0,0,1,0,43.348Z" transform="translate(0 -0.102)" fill="#5282f0"/>
      <path id="Path_9" data-name="Path 9" d="M137.59,192.43H104.8a5.221,5.221,0,0,1-5.213-5.213V177.2a5.221,5.221,0,0,1,5.213-5.213H137.59A5.221,5.221,0,0,1,142.8,177.2v10.014A5.221,5.221,0,0,1,137.59,192.43ZM104.8,176.947a.251.251,0,0,0-.248.248V187.21a.251.251,0,0,0,.248.248H137.59a.251.251,0,0,0,.248-.248V177.2a.251.251,0,0,0-.248-.248Z" transform="translate(-15.513 -39.074)" fill="#5282f0"/>
      <path id="Path_10" data-name="Path 10" d="M137.547,145.545a2.328,2.328,0,0,1-2.326-2.326v-25.8a2.262,2.262,0,0,0-.73-1.652,2.184,2.184,0,0,0-1.723-.56,2.426,2.426,0,0,0-1.986,2.475,2.326,2.326,0,1,1-4.653,0v-2.993a2.262,2.262,0,0,0-.73-1.652,2.183,2.183,0,0,0-1.731-.56,2.425,2.425,0,0,0-1.986,2.468v2.731a2.326,2.326,0,1,1-4.653,0v-4.816a2.262,2.262,0,0,0-.731-1.652,2.167,2.167,0,0,0-1.723-.56,2.427,2.427,0,0,0-1.993,2.475v4.553a2.326,2.326,0,1,1-4.653,0V94.041a2.262,2.262,0,0,0-.73-1.652,2.167,2.167,0,0,0-1.731-.56A2.422,2.422,0,0,0,103.49,94.3v31.617a2.328,2.328,0,0,1-2.326,2.326,2.2,2.2,0,0,0-2.227,2.227v2.851a6.806,6.806,0,0,0,1.028,3.6l3.17,5.071a2.332,2.332,0,0,1-3.957,2.468l-3.17-5.071a11.455,11.455,0,0,1-1.738-6.064v-2.851a6.87,6.87,0,0,1,4.553-6.482V94.3A7.088,7.088,0,0,1,105,87.2a6.881,6.881,0,0,1,7.582,6.851V106.36a6.512,6.512,0,0,1,1.525-.34,6.93,6.93,0,0,1,5.319,1.745,6.453,6.453,0,0,1,.95,1.064,6.553,6.553,0,0,1,2.837-.979,6.912,6.912,0,0,1,5.319,1.745,7.008,7.008,0,0,1,1.383,1.723,6.575,6.575,0,0,1,2.411-.738,6.9,6.9,0,0,1,5.319,1.745h0a6.9,6.9,0,0,1,2.262,5.106v25.8a2.328,2.328,0,0,1-2.326,2.326Z" transform="translate(-13.966 -14.41)" fill="#5282f0"/>
      <path id="Path_40" data-name="Path 40" d="M5.916-6.732a2.9,2.9,0,0,0-.768-.462,2.039,2.039,0,0,0-.744-.15,1.207,1.207,0,0,0-.744.216.673.673,0,0,0-.288.564.561.561,0,0,0,.144.4,1.255,1.255,0,0,0,.378.27,3.235,3.235,0,0,0,.528.2q.294.084.582.18A3.629,3.629,0,0,1,6.69-4.494,2.531,2.531,0,0,1,7.224-2.82,3.259,3.259,0,0,1,6.99-1.56a2.629,2.629,0,0,1-.684.966A3.156,3.156,0,0,1,5.2.03,4.6,4.6,0,0,1,3.72.252,5.45,5.45,0,0,1,.54-.768l1.008-1.9a4.089,4.089,0,0,0,1.044.7,2.509,2.509,0,0,0,1.02.228A1.217,1.217,0,0,0,4.47-2a.8.8,0,0,0,.282-.6.81.81,0,0,0-.072-.354.767.767,0,0,0-.24-.276A1.923,1.923,0,0,0,4-3.468q-.27-.108-.654-.24-.456-.144-.894-.318a2.813,2.813,0,0,1-.78-.462,2.147,2.147,0,0,1-.552-.726,2.567,2.567,0,0,1-.21-1.11,3.207,3.207,0,0,1,.222-1.218,2.707,2.707,0,0,1,.624-.936,2.781,2.781,0,0,1,.984-.606,3.72,3.72,0,0,1,1.3-.216,5.7,5.7,0,0,1,1.4.186,6.192,6.192,0,0,1,1.4.546Zm4.308-2.316L11.784-3.2,13.7-9.048h1.872L17.5-3.2l1.56-5.844h2.46L18.816,0h-2.4L14.64-5.244,12.864,0h-2.4l-2.7-9.048Zm14.592,0V0H22.464V-9.048Zm5.328,1.992V0H27.792V-7.056H25.86V-9.048h6.216v1.992Zm9.408,1.032a2.51,2.51,0,0,0-2.016-1,2.466,2.466,0,0,0-.978.192,2.38,2.38,0,0,0-.774.522,2.4,2.4,0,0,0-.51.786,2.58,2.58,0,0,0-.186.984,2.612,2.612,0,0,0,.186,1,2.423,2.423,0,0,0,.516.792,2.419,2.419,0,0,0,.774.528,2.392,2.392,0,0,0,.96.192,2.724,2.724,0,0,0,2.028-.96V-.2l-.24.084A6.944,6.944,0,0,1,38.3.162a4.885,4.885,0,0,1-.924.09A4.659,4.659,0,0,1,35.586-.1a4.691,4.691,0,0,1-1.512-1,4.955,4.955,0,0,1-1.05-1.524,4.648,4.648,0,0,1-.4-1.926,4.626,4.626,0,0,1,.39-1.914,4.764,4.764,0,0,1,1.044-1.5,4.775,4.775,0,0,1,1.518-.984A4.734,4.734,0,0,1,37.392-9.3a4.963,4.963,0,0,1,1.062.114,6.442,6.442,0,0,1,1.1.354Zm4.584.468h3.4V-9.048h2.352V0H47.532V-3.732h-3.4V0H41.784V-9.048h2.352Z" transform="translate(61.056 63.092)" fill="#5282f0"/>
      <circle id="Ellipse_1" data-name="Ellipse 1" cx="19.163" cy="19.163" r="19.163" transform="translate(119.999 40.092)" fill="#fc8d42"/>
      <path id="Ellipse_1_-_Outline" data-name="Ellipse 1 - Outline" d="M18.146-3.5A21.646,21.646,0,1,1-3.5,18.146,21.67,21.67,0,0,1,18.146-3.5Zm0,38.326A16.681,16.681,0,1,0,1.465,18.146,16.7,16.7,0,0,0,18.146,34.826Z" transform="translate(121.017 41.11)" fill="#5282f0"/>
    </g>
  </g>
</svg>
