<svg xmlns="http://www.w3.org/2000/svg" width="24" height="24" viewBox="0 0 24 24">
  <g id="Group_1074" data-name="Group 1074" transform="translate(-173 -394)">
    <rect id="Rectangle_1615" data-name="Rectangle 1615" width="24" height="24" transform="translate(173 394)" fill="#fff" opacity="0"/>
    <path id="twitter-brands" d="M17.2,51.962c.012.17.012.341.012.511A11.1,11.1,0,0,1,6.033,63.65,11.1,11.1,0,0,1,0,61.886a8.127,8.127,0,0,0,.949.049,7.868,7.868,0,0,0,4.877-1.678,3.935,3.935,0,0,1-3.673-2.724,4.954,4.954,0,0,0,.742.061,4.155,4.155,0,0,0,1.034-.134A3.929,3.929,0,0,1,.778,53.6v-.049a3.956,3.956,0,0,0,1.776.5A3.934,3.934,0,0,1,1.338,48.8a11.167,11.167,0,0,0,8.1,4.111,4.435,4.435,0,0,1-.1-.9,3.932,3.932,0,0,1,6.8-2.688,7.734,7.734,0,0,0,2.493-.949,3.918,3.918,0,0,1-1.727,2.165,7.875,7.875,0,0,0,2.262-.608A8.445,8.445,0,0,1,17.2,51.962Z" transform="translate(174.968 349.996)" fill="#4d6582"/>
  </g>
</svg>
