<svg xmlns="http://www.w3.org/2000/svg" width="24" height="24" viewBox="0 0 24 24">
  <g id="Group_1075" data-name="Group 1075" transform="translate(-223 -394)">
    <rect id="Rectangle_1616" data-name="Rectangle 1616" width="24" height="24" transform="translate(223 394)" fill="#fff" opacity="0"/>
    <path id="youtube-brands" d="M37.458,66.531a2.891,2.891,0,0,0-2.034-2.047C33.63,64,26.436,64,26.436,64s-7.194,0-8.988.484a2.891,2.891,0,0,0-2.034,2.047,32.547,32.547,0,0,0,0,11.147,2.848,2.848,0,0,0,2.034,2.014c1.794.484,8.988.484,8.988.484s7.194,0,8.988-.484a2.848,2.848,0,0,0,2.034-2.014,32.547,32.547,0,0,0,0-11.147ZM24.083,75.525V68.684L30.1,72.1Z" transform="translate(208.564 335.078)" fill="#4d6582"/>
  </g>
</svg>
