<?xml version="1.0" encoding="UTF-8"?>
<svg xmlns="http://www.w3.org/2000/svg" viewBox="0 0 492 134">
  <defs>
    <style>
      .cls-1 {
        fill: #f9f9f9;
      }

      .cls-2 {
        fill: #03468e;
      }

      .cls-3 {
        fill: #7cbeff;
      }
    </style>
  </defs>
  <g id="_200" data-name=" 200">
    <path id="Rectangle_1585" data-name="Rectangle 1585" class="cls-2" d="m67,0h358c37,0,67,30,67,67h0c0,37-30,67-67,67H67C30,134,0,104,0,67h0C0,30,30,0,67,0Z"/>
  </g>
  <g id="e">
    <g>
      <path class="cls-1" d="m69.6,64.34v-2.13h5.81v.15c0,2.27-.62,4.02-1.86,5.24-1.12,1.11-2.62,1.67-4.5,1.67s-3.46-.57-4.6-1.71c-1.25-1.25-1.88-2.88-1.88-4.88s.62-3.47,1.86-4.71c1.27-1.29,2.93-1.94,5-1.94,1.11,0,2.09.22,2.93.67.98.49,1.77,1.27,2.38,2.32l-2.15,1.16c-.34-.66-.84-1.16-1.48-1.5-.53-.27-1.13-.4-1.79-.4-1.19,0-2.17.37-2.93,1.12-.85.82-1.27,1.94-1.27,3.34,0,1.33.42,2.4,1.25,3.21.75.72,1.68,1.08,2.81,1.08.99,0,1.82-.25,2.49-.76.61-.47,1.01-1.11,1.2-1.94h-3.27Z"/>
      <path class="cls-1" d="m84.73,56.32v2.13h-4.56v2.83h4.37v2.13h-4.37v3.46h4.56v2.13h-7.03v-12.67h7.03Z"/>
      <path class="cls-1" d="m94.36,58.45h-2.85v10.54h-2.47v-10.54h-2.85v-2.13h8.17v2.13Z"/>
      <path class="cls-1" d="m45.23,74.32h2.47v7.96c0,.8.2,1.42.61,1.88.48.58,1.15.87,2.01.87s1.53-.29,2.01-.87c.41-.46.61-1.08.61-1.88v-7.96h2.47v7.75c0,1.44-.32,2.57-.95,3.38-.44.58-1.04,1.03-1.78,1.35s-1.53.47-2.37.47-1.62-.16-2.37-.47c-.74-.32-1.33-.77-1.78-1.35-.63-.81-.95-1.94-.95-3.38v-7.75Z"/>
      <path class="cls-1" d="m58.3,74.32h3.69c.79,0,1.43.07,1.93.2.5.13.97.39,1.42.77.86.76,1.29,1.78,1.29,3.06,0,1.19-.35,2.13-1.04,2.83-.75.75-1.82,1.12-3.21,1.12h-1.6v4.69h-2.47v-12.67Zm2.47,2.13v3.72h1.01c.72,0,1.26-.13,1.62-.4.46-.35.68-.85.68-1.48s-.24-1.1-.7-1.44c-.38-.27-.96-.4-1.75-.4h-.86Z"/>
      <path class="cls-1" d="m79.71,76.45h-2.85v10.54h-2.47v-10.54h-2.85v-2.13h8.17v2.13Z"/>
      <path class="cls-1" d="m82,75.9c1.26-1.24,2.88-1.86,4.87-1.86s3.61.62,4.87,1.86c1.26,1.24,1.89,2.83,1.89,4.77s-.63,3.52-1.89,4.76c-1.26,1.24-2.89,1.85-4.87,1.85s-3.61-.62-4.87-1.85c-1.26-1.24-1.89-2.82-1.89-4.76s.63-3.53,1.89-4.77Zm1.83,7.91c.79.82,1.8,1.23,3.04,1.23s2.25-.41,3.04-1.23c.79-.82,1.18-1.86,1.18-3.14s-.4-2.33-1.19-3.15c-.79-.82-1.8-1.24-3.03-1.24s-2.24.41-3.03,1.24c-.79.82-1.19,1.87-1.19,3.15s.39,2.33,1.18,3.14Z"/>
    </g>
    <g>
      <path class="cls-1" d="m306.9,42.55h2.62v11.34h-2.62v-11.34Z"/>
      <path class="cls-1" d="m314.67,53.89h-2.62v-11.34h2.28l6.15,7.31v-7.31h2.62v11.34h-2.28l-6.15-7.34v7.34Z"/>
      <path class="cls-1" d="m335.98,44.76h-2.46v9.13h-2.62v-9.13h-2.46v-2.21h7.55v2.21Z"/>
      <path class="cls-1" d="m337.36,42.55h3.98c1.22,0,2.19.33,2.89.99.66.63.99,1.48.99,2.53,0,.96-.29,1.73-.88,2.31-.45.43-.98.72-1.58.87l3.49,4.64h-3.2l-3.06-4.47v4.47h-2.62v-11.34Zm2.62,2.04v3.11h.6c.71,0,1.23-.16,1.56-.49.28-.28.42-.65.42-1.1,0-.5-.18-.88-.53-1.16-.32-.24-.8-.36-1.44-.36h-.61Z"/>
      <path class="cls-1" d="m355.38,53.89l-.85-2.14h-4.28l-.87,2.14h-2.72l4.57-11.34h2.4l4.47,11.34h-2.72Zm-4.37-4.15h2.8l-1.39-3.81-1.41,3.81Z"/>
      <path class="cls-1" d="m361.99,53.89h-2.62v-11.34h2.28l6.15,7.31v-7.31h2.62v11.34h-2.28l-6.15-7.34v7.34Z"/>
      <path class="cls-1" d="m379.93,43.41l-1.17,1.9c-.6-.54-1.24-.82-1.9-.82-.5,0-.87.13-1.11.39-.19.19-.29.43-.29.71,0,.26.08.47.25.63.06.05.11.09.17.13.06.04.14.08.24.13.1.05.19.08.25.11.07.03.19.07.36.14.17.06.31.11.41.14l.85.32c.71.27,1.23.56,1.55.87.55.52.83,1.22.83,2.11,0,1.18-.33,2.11-1,2.81-.74.77-1.81,1.16-3.21,1.16-.86,0-1.61-.16-2.24-.48-.57-.28-1.12-.7-1.67-1.24l1.36-1.87c.39.39.74.67,1.05.87.44.27.92.41,1.43.41s.88-.13,1.19-.39c.27-.23.41-.53.41-.92,0-.32-.13-.59-.39-.82-.2-.17-.65-.38-1.33-.63l-.93-.32c-.74-.26-1.26-.56-1.58-.9-.45-.48-.68-1.13-.68-1.97,0-1.03.33-1.88.99-2.55.68-.69,1.62-1.04,2.81-1.04s2.36.37,3.37,1.12Z"/>
      <path class="cls-1" d="m388.55,42.55v2.21h-3.67v2.19h3.4v2.21h-3.4v4.73h-2.62v-11.34h6.29Z"/>
      <path class="cls-1" d="m396.88,42.55v2.21h-3.79v2.19h3.6v2.21h-3.6v2.52h3.79v2.21h-6.41v-11.34h6.41Z"/>
      <path class="cls-1" d="m399,42.55h3.98c1.22,0,2.19.33,2.89.99.66.63.99,1.48.99,2.53,0,.96-.29,1.73-.88,2.31-.45.43-.98.72-1.58.87l3.49,4.64h-3.2l-3.06-4.47v4.47h-2.62v-11.34Zm2.62,2.04v3.11h.6c.71,0,1.23-.16,1.56-.49.28-.28.42-.65.42-1.1,0-.5-.18-.88-.53-1.16-.32-.24-.8-.36-1.44-.36h-.61Z"/>
      <path class="cls-1" d="m419.57,42.55v2.21h-3.67v2.19h3.4v2.21h-3.4v4.73h-2.62v-11.34h6.29Z"/>
      <path class="cls-1" d="m427.9,42.55v2.21h-3.79v2.19h3.6v2.21h-3.6v2.52h3.79v2.21h-6.41v-11.34h6.41Z"/>
      <path class="cls-1" d="m436.44,42.55v2.21h-3.79v2.19h3.6v2.21h-3.6v2.52h3.79v2.21h-6.41v-11.34h6.41Z"/>
      <path class="cls-1" d="m309.56,61.2h4.92c3.31,0,5.8.57,7.45,1.7,2.24,1.5,3.36,3.77,3.36,6.81,0,2.36-.71,4.32-2.14,5.89-1.43,1.56-3.29,2.42-5.59,2.58l9.75,13.71h-4.14l-9.34-13.43h-.88v13.43h-3.4v-30.68Zm3.4,3.22v10.99h2.16c2.12,0,3.77-.49,4.97-1.47,1.2-.98,1.79-2.36,1.79-4.14,0-2.08-.81-3.59-2.44-4.51-1.04-.58-2.51-.87-4.42-.87h-2.07Z"/>
      <path class="cls-1" d="m345.07,85.49l2.76,1.52c-.64,1.23-1.43,2.25-2.35,3.08-1.75,1.56-3.86,2.35-6.35,2.35s-4.79-.83-6.65-2.51c-1.86-1.67-2.78-4.16-2.78-7.47,0-2.91.83-5.33,2.51-7.25,1.67-1.92,3.92-2.88,6.74-2.88,3.19,0,5.6,1.17,7.22,3.5,1.29,1.84,1.89,4.23,1.79,7.18h-14.86c.03,1.93.63,3.5,1.79,4.69,1.16,1.2,2.59,1.79,4.28,1.79,1.5,0,2.81-.46,3.91-1.38.86-.74,1.52-1.61,1.98-2.62Zm-11.73-5.24h11.22c-.28-1.5-.93-2.71-1.96-3.61-1.03-.9-2.25-1.36-3.66-1.36s-2.6.47-3.66,1.4c-1.06.94-1.71,2.12-1.96,3.57Z"/>
      <path class="cls-1" d="m356.34,89.22v2.67h-3.31v-33.53h3.31v17.11c1.69-2.08,3.86-3.13,6.53-3.13,2.85,0,5.11,1,6.79,3.01,1.67,2.01,2.51,4.38,2.51,7.11s-.83,5.11-2.48,7.06c-1.66,1.95-3.88,2.92-6.67,2.92s-5.01-1.07-6.67-3.22Zm6.21.28c1.87,0,3.37-.68,4.51-2.05,1.13-1.36,1.7-3.03,1.7-4.99,0-2.21-.63-3.96-1.89-5.24s-2.71-1.93-4.37-1.93-3.13.64-4.42,1.93c-1.29,1.29-1.93,3.02-1.93,5.2,0,1.99.59,3.67,1.77,5.04,1.18,1.36,2.72,2.05,4.62,2.05Z"/>
      <path class="cls-1" d="m391.85,75.51v-2.71h3.31v19.09h-3.31v-2.67c-1.66,2.15-3.83,3.22-6.53,3.22s-4.77-.89-6.58-2.67c-1.81-1.78-2.71-4.26-2.71-7.45s.9-5.57,2.69-7.34,3.99-2.65,6.6-2.65c2.76,0,4.94,1.06,6.53,3.17Zm-6.16-.23c-1.75,0-3.23.62-4.44,1.86-1.21,1.24-1.82,2.97-1.82,5.18s.56,3.84,1.68,5.17,2.65,2,4.58,2,3.47-.69,4.62-2.07c1.15-1.38,1.73-3.07,1.73-5.06,0-2.27-.64-4.02-1.93-5.24s-2.76-1.84-4.42-1.84Z"/>
      <path class="cls-1" d="m408.14,75.83h-3.31v16.05h-3.31v-16.05h-2.02v-3.04h2.02v-6.9h3.31v6.9h3.31v3.04Z"/>
      <path class="cls-1" d="m425.43,85.49l2.76,1.52c-.64,1.23-1.43,2.25-2.35,3.08-1.75,1.56-3.86,2.35-6.35,2.35s-4.79-.83-6.65-2.51c-1.86-1.67-2.78-4.16-2.78-7.47,0-2.91.83-5.33,2.51-7.25,1.67-1.92,3.92-2.88,6.74-2.88,3.19,0,5.6,1.17,7.22,3.5,1.29,1.84,1.89,4.23,1.79,7.18h-14.86c.03,1.93.63,3.5,1.79,4.69,1.17,1.2,2.59,1.79,4.28,1.79,1.5,0,2.81-.46,3.91-1.38.86-.74,1.52-1.61,1.98-2.62Zm-11.73-5.24h11.22c-.28-1.5-.93-2.71-1.96-3.61-1.03-.9-2.25-1.36-3.66-1.36s-2.6.47-3.66,1.4c-1.06.94-1.71,2.12-1.96,3.57Z"/>
      <path class="cls-1" d="m443.97,75.79l-2.71,1.43c-.52-1.29-1.41-1.93-2.67-1.93-.64,0-1.19.18-1.63.55s-.67.91-.67,1.61c0,.64.21,1.13.62,1.45.41.32,1.23.74,2.46,1.27,2.42,1.01,4.02,1.99,4.78,2.94.67.83,1.01,1.86,1.01,3.08,0,1.93-.62,3.46-1.86,4.58-1.24,1.12-2.81,1.68-4.71,1.68-.37,0-.77-.04-1.2-.11-.43-.08-1.02-.25-1.77-.51-.75-.26-1.46-.76-2.14-1.5-.67-.74-1.2-1.66-1.56-2.76l2.85-1.2c.77,2.09,2.05,3.13,3.86,3.13,1.01,0,1.79-.31,2.32-.92s.81-1.32.81-2.12c0-.43-.07-.8-.21-1.13-.14-.32-.37-.61-.69-.85-.32-.25-.63-.44-.92-.6-.29-.15-.71-.35-1.26-.6-2.45-1.07-4-2.01-4.65-2.81-.58-.74-.87-1.67-.87-2.81,0-1.66.51-2.96,1.54-3.91,1.03-.95,2.37-1.43,4.02-1.43,2.42,0,4.17,1.15,5.24,3.45Z"/>
    </g>
    <path class="cls-3" d="m107.74,50.82h4.6v5.06c2.24.12,4.55.9,6.95,2.35l-3.04,5.89c-1.72-1.32-3.43-1.98-5.15-1.98-1.26,0-2.18.28-2.76.83-.46.4-.69.9-.69,1.52s.21,1.09.64,1.52c.52.46,1.23.84,2.12,1.15l2.39.83c2.39.8,4.17,1.76,5.34,2.9,1.53,1.5,2.3,3.37,2.3,5.61,0,2.82-.86,5.14-2.58,6.95-1.38,1.41-3.22,2.41-5.52,2.99v5.2h-4.6v-4.97c-1.75-.03-3.48-.4-5.2-1.1-1.63-.67-3.11-1.55-4.46-2.62l3.31-6.16c1.1,1.07,2.16,1.86,3.17,2.35,1.47.71,2.87,1.06,4.19,1.06s2.28-.35,2.99-1.06c.55-.55.83-1.2.83-1.93s-.31-1.29-.92-1.75c-.43-.31-1.12-.61-2.07-.92l-2.71-.92c-2.36-.8-4.05-1.75-5.06-2.85-1.32-1.35-1.98-3.13-1.98-5.34,0-2.64.77-4.8,2.3-6.49,1.44-1.59,3.31-2.61,5.61-3.04v-5.06Z"/>
    <g>
      <path class="cls-3" d="m176.05,86.19v14.82h-53.94l17.04-17.85c6.12-6.39,10.72-12.07,13.81-17.04,2.42-3.76,3.63-7.26,3.63-10.49,0-2.82-.67-4.97-2.02-6.45-1.21-1.34-2.86-2.02-4.94-2.02-2.49,0-4.44.91-5.85,2.72-1.48,1.88-2.29,4.64-2.42,8.27h-18.05c.07-7.53,2.55-13.75,7.46-18.65,4.84-4.84,11.19-7.26,19.06-7.26s14.32,2.32,18.96,6.96c4.37,4.37,6.55,9.88,6.55,16.54,0,7.13-3.33,13.78-9.98,19.96l-11.29,10.49h21.98Z"/>
      <path class="cls-3" d="m229.9,33.76v14.82h-23.29l-1.21,7.46c2.08-.34,3.9-.5,5.45-.5,7.53,0,13.44,2.22,17.75,6.65,4.1,4.1,6.15,9.41,6.15,15.93s-2.15,12.4-6.45,16.84c-4.91,5.04-11.9,7.56-20.97,7.56s-16.3-2.02-22.69-6.05l2.62-16.33c2.55,2.35,5.24,4.17,8.07,5.45,3.29,1.55,6.66,2.32,10.08,2.32,3.76,0,6.69-1.11,8.77-3.33,1.75-1.88,2.62-4.17,2.62-6.86,0-2.96-1.08-5.38-3.23-7.26-2.49-2.22-6.52-3.33-12.1-3.33-4.5,0-8.64.94-12.4,2.82l5.85-36.2h34.99Z"/>
      <path class="cls-3" d="m299.27,67.44c0,11.76-3.33,20.91-9.98,27.43-5.18,5.11-11.36,7.66-18.55,7.66s-13.38-2.55-18.55-7.66c-6.66-6.52-9.98-15.66-9.98-27.43s3.33-21.01,9.98-27.53c5.18-5.11,11.36-7.66,18.55-7.66s13.38,2.56,18.55,7.66c6.66,6.52,9.98,15.7,9.98,27.53Zm-28.54-19.56c-2.02,0-3.8.71-5.34,2.12-1.75,1.48-3.16,3.95-4.24,7.41-1.08,3.46-1.61,6.84-1.61,10.13,0,3.02.52,6.3,1.56,9.83,1.04,3.53,2.47,6.1,4.29,7.71,1.55,1.41,3.33,2.12,5.34,2.12s3.8-.71,5.34-2.12c1.75-1.54,3.16-4.05,4.24-7.51,1.07-3.46,1.61-6.77,1.61-9.93s-.55-6.52-1.66-10.08c-1.11-3.56-2.5-6.08-4.18-7.56-1.55-1.41-3.33-2.12-5.34-2.12Z"/>
    </g>
  </g>
</svg>