<svg xmlns="http://www.w3.org/2000/svg" width="155" height="48" viewBox="0 0 155 48">
  <g id="Group_1054" data-name="Group 1054" transform="translate(-3.009 -0.224)">
    <g id="Rectangle_1608" data-name="Rectangle 1608" transform="translate(3.009 0.224)" fill="none" stroke="#cfe7f8" stroke-width="1">
      <rect width="155" height="48" rx="6" stroke="none"/>
      <rect x="0.5" y="0.5" width="154" height="47" rx="5.5" fill="none"/>
    </g>
    <g id="android" transform="translate(16.213 8.735)">
      <g id="Group_1067" data-name="Group 1067" transform="translate(4.503)">
        <path id="Path_1666" data-name="Path 1666" d="M26.582,12.73C18.5,12.7,18.31,19.766,18.31,19.766H34.855s-.256-7.01-8.272-7.036Zm-3.629,4.423a1,1,0,1,1,1-1A1,1,0,0,1,22.954,17.153Zm7.257,0a1,1,0,1,1,1-1,1,1,0,0,1-1,1Z" transform="translate(-18.31 -11.293)" fill="#cfe7f8"/>
        <path id="Path_1667" data-name="Path 1667" d="M23.054,13.493a.308.308,0,0,0,.2-.026h0c.079-.062.124-.141.1-.177l-1.545-2.181a.308.308,0,0,0-.2.026h0c-.079.062-.124.141-.1.177Z" transform="translate(-18.684 -11.103)" fill="#cfe7f8"/>
        <path id="Path_1668" data-name="Path 1668" d="M32.059,13.493a.308.308,0,0,1-.2-.026h0c-.079-.062-.124-.141-.1-.177L33.3,11.109a.308.308,0,0,1,.2.026h0c.079.062.124.141.1.177Z" transform="translate(-19.884 -11.103)" fill="#cfe7f8"/>
      </g>
      <g id="Group_1068" data-name="Group 1068" transform="translate(0 8.888)">
        <path id="Path_1669" data-name="Path 1669" d="M34.917,21.81H18.24v6.869h.018v7.2a1,1,0,0,0,1,1H33.911a1,1,0,0,0,1-1v-7.2h.018V21.81Z" transform="translate(-13.799 -21.245)" fill="#cfe7f8"/>
        <path id="Path_1670" data-name="Path 1670" d="M41.679,30.917A1.775,1.775,0,0,1,39.9,32.691h0a1.775,1.775,0,0,1-1.775-1.775V22.945A1.775,1.775,0,0,1,39.9,21.17h0a1.775,1.775,0,0,1,1.775,1.775Z" transform="translate(-16.129 -21.17)" fill="#cfe7f8"/>
        <path id="Path_1671" data-name="Path 1671" d="M16.759,30.917a1.775,1.775,0,0,1-1.775,1.775h0a1.775,1.775,0,0,1-1.775-1.775V22.945a1.775,1.775,0,0,1,1.775-1.775h0a1.775,1.775,0,0,1,1.775,1.775Z" transform="translate(-13.21 -21.17)" fill="#cfe7f8"/>
        <path id="Path_1672" data-name="Path 1672" d="M33.1,42.607a1.775,1.775,0,0,1-1.775,1.775h0a1.775,1.775,0,0,1-1.775-1.775V34.635a1.775,1.775,0,0,1,1.775-1.775h0A1.775,1.775,0,0,1,33.1,34.635Z" transform="translate(-15.124 -22.539)" fill="#cfe7f8"/>
        <path id="Path_1673" data-name="Path 1673" d="M25.339,42.607a1.775,1.775,0,0,1-1.775,1.775h0a1.775,1.775,0,0,1-1.775-1.775V34.635a1.775,1.775,0,0,1,1.775-1.775h0a1.775,1.775,0,0,1,1.775,1.775Z" transform="translate(-14.215 -22.539)" fill="#cfe7f8"/>
      </g>
    </g>
    <g id="Group_1069" data-name="Group 1069" transform="translate(49.763 9.815)">
      <path id="Path_1674" data-name="Path 1674" d="M60.167,16.7h-1.7a.412.412,0,0,1-.261.108,5.737,5.737,0,0,1-.943,1.824,18.676,18.676,0,0,1,2.461,1.114l-1.186,1.2a18.5,18.5,0,0,0-2.5-1.231,9.674,9.674,0,0,1-3.971,1.231,5.844,5.844,0,0,0-.764-1.285,10.524,10.524,0,0,0,2.991-.6c-.2-.072-.413-.144-.611-.2l-.081.162-1.545-.4c.287-.53.638-1.2.979-1.931H50.95V15.324h2.713c.225-.5.422-1.006.6-1.482H52.693v1.195H51.2V12.494h3.539V11.38l1.9.1c-.009.117-.1.189-.323.225v.8h3.6v2.542H58.343V13.85H54.669l1.41.261c-.027.117-.117.18-.332.18-.135.332-.278.674-.431,1.033h4.86V16.7Zm-5.471,0c-.144.323-.287.647-.431.952.476.117.988.278,1.509.449a3.5,3.5,0,0,0,.791-1.41H54.7Z" transform="translate(-50.95 -11.38)" fill="#cfe7f8"/>
      <path id="Path_1675" data-name="Path 1675" d="M71.324,18.208v1.321H67.47v1.419H65.952V19.529H62.17V18.208h3.782v-.431H63.185V13.654h2.677V11.39l1.833.1c-.009.108-.1.18-.314.225v.35H70.9v1.222H67.38v.368h3.036v4.123H67.47v.431ZM64.64,14.795v.368H68.89v-.368Zm0,1.446v.386H68.89v-.386Z" transform="translate(-52.091 -11.381)" fill="#cfe7f8"/>
      <path id="Path_1676" data-name="Path 1676" d="M78.281,18.485h-3.09l-.674,1.608H72.9l3.3-7.663h1.168l3.207,7.663H78.964l-.674-1.608Zm-.44-1.222-1.087-2.758-1.087,2.758H77.85Z" transform="translate(-53.181 -11.487)" fill="#cfe7f8"/>
      <path id="Path_1677" data-name="Path 1677" d="M84.979,12.43A2.747,2.747,0,0,1,87,13.014a2.433,2.433,0,0,1,.782,1.851,2.488,2.488,0,0,1-.629,1.716,2.637,2.637,0,0,1-1.94.674h-.961v2.839H82.76V12.43h2.228Zm-.737,3.539h.611a1.531,1.531,0,0,0,.979-.243,1.136,1.136,0,0,0,.413-.9,1.063,1.063,0,0,0-.422-.871,1.831,1.831,0,0,0-1.06-.243h-.521v2.255Z" transform="translate(-54.184 -11.487)" fill="#cfe7f8"/>
      <path id="Path_1678" data-name="Path 1678" d="M92.129,12.43a2.747,2.747,0,0,1,2.021.584,2.433,2.433,0,0,1,.782,1.851A2.488,2.488,0,0,1,94.3,16.58a2.637,2.637,0,0,1-1.94.674H91.4v2.839H89.91V12.43h2.228Zm-.737,3.539H92a1.531,1.531,0,0,0,.979-.243,1.137,1.137,0,0,0,.413-.9,1.063,1.063,0,0,0-.422-.871,1.831,1.831,0,0,0-1.06-.243h-.521v2.255Z" transform="translate(-54.911 -11.487)" fill="#cfe7f8"/>
    </g>
    <g id="Group_1070" data-name="Group 1070" transform="translate(49.673 24.391)">
      <path id="Path_1679" data-name="Path 1679" d="M52.768,38.44a6.438,6.438,0,0,1-1.112,3.108l-1.236-.636a5.823,5.823,0,0,0,1.059-2.843l1.289.362Zm5.3-1.21c-2.463.2-5.015.38-6.648.494a.294.294,0,0,1-.283.221l-.512-1.854c.812-.018,1.828-.044,2.949-.079v-.759H51.109V33.805h2.463v-.7h-2.49V27.06h6.78v6.048h-2.6v.7h2.569v1.448H55.258v.7l2.843-.115-.035,1.395ZM52.927,31.36a10.369,10.369,0,0,0-.415-2.234v2.7h1.333V28.349H52.512v.662l.742-.221a10.723,10.723,0,0,1,.512,2.3l-.839.274Zm.2,9.614a13.354,13.354,0,0,0-.274-2.808l1.157-.141a15.76,15.76,0,0,1,.353,2.79Zm1.986-.2a13.586,13.586,0,0,0-.653-2.666c.433-.1.777-.159,1.13-.221a13.419,13.419,0,0,1,.7,2.649l-1.174.238Zm1.271-11.716V28.34H55.011v2.622a22.435,22.435,0,0,0,.6-2.19Zm-1.377,2.763h1.377V29.373a18.15,18.15,0,0,1-.742,2.013l-.636-.274v.7Zm2.172,8.7a11.051,11.051,0,0,0-1.157-2.551l1.13-.433a10.034,10.034,0,0,1,1.236,2.49Zm8.3-8.873h-3.1v2.463h2.543v7.363h-1.81v-.521H60.149v.592h-1.73V34.114h2.11v-7.5l2.269.124c-.018.141-.124.256-.415.283v2.869h3.1v1.766Zm-2.366,7.566V35.827H60.149v3.381h2.966Z" transform="translate(-50.42 -26.575)" fill="#cfe7f8"/>
      <path id="Path_1680" data-name="Path 1680" d="M71.679,33.582v-.918H68.73v-.918h2.949v-.4H69.392v-2.71h2.287v-.38h-2.71v-.953h2.71V26.59l1.81.115c-.018.124-.115.221-.362.256v.353h2.825v.953H73.127v.38h2.428v2.71H73.127v.4H76v.918H73.127v.918h.936v-.812l1.7.1c-.018.124-.115.221-.353.256v1.395H69.5V32.779l1.633.1c-.018.124-.115.221-.353.256v.459h.892Zm5.288,3.964V38.1h6.224v1.21H76.967v.6c0,1.474-.7,1.633-3.584,1.633a6.144,6.144,0,0,0-.6-1.43c.759.035,1.73.035,1.951.035.256-.018.353-.079.353-.283v-.556H68.9V38.1h6.189v-.556H69.948v-1.21h5.138V35.9c-1.236.044-2.49.044-3.664.035a4.573,4.573,0,0,0-.3-1.051,59.638,59.638,0,0,0,8.334-.415l1.174,1a.294.294,0,0,1-.2.062.489.489,0,0,1-.159-.018c-.892.124-2.031.238-3.284.3v.521h5.253v1.21H76.985Zm-6.33-8.264v.38h1.051v-.38Zm0,1.413h1.051v-.4H70.637Zm3.62-1.413h-1.13v.38h1.13Zm0,1.413v-.4h-1.13v.4Zm7.5-.256.874.238a.544.544,0,0,1-.1.2,4.952,4.952,0,0,1-1.81,2.3,11.63,11.63,0,0,0,2.825.653,5.631,5.631,0,0,0-.953,1.315A10.308,10.308,0,0,1,79.174,34a12.666,12.666,0,0,1-2.666.662,4.581,4.581,0,0,0-.636-1.218,14.191,14.191,0,0,0,2.013-.353,6.52,6.52,0,0,1-1-1.157l.856-.256H76.252v-1.21h.512a7.1,7.1,0,0,0-.971-.856c1.051-.512,1.192-1.059,1.192-1.651v-.936h4.494v1.395c0,.38,0,.459.194.459.574,0,.592,0,.636-.936a3.613,3.613,0,0,0,1.112.592c-.062.9-.124,1.669-1.457,1.669h-.733c-1.351,0-1.351-.936-1.351-1.907H78.53a2.681,2.681,0,0,1-1.112,2.172h4.1l.256-.035ZM78.4,31.675a4.558,4.558,0,0,0,.971.839,4.234,4.234,0,0,0,1.095-.839Z" transform="translate(-52.565 -26.572)" fill="#cfe7f8"/>
      <path id="Path_1681" data-name="Path 1681" d="M86.75,39.012h14.505v1.916H86.75V39.012ZM100.8,29.38v1.872H87.28V29.38h5.677V26.59l2.446.124c-.018.159-.141.256-.441.318V29.38Zm-9.729,2.446A27.846,27.846,0,0,1,92.356,38c-.044,0-.079,0-1.986.494A26.162,26.162,0,0,0,89.24,32.3l1.828-.477Zm8.255.512a.587.587,0,0,1-.512.274,38.922,38.922,0,0,1-1.969,6.171l-1.775-.521a36.885,36.885,0,0,0,1.669-6.507l2.587.592Z" transform="translate(-54.675 -26.572)" fill="#cfe7f8"/>
      <path id="Path_1682" data-name="Path 1682" d="M107.309,38.115c.636-.124,1.289-.274,1.951-.415a16.2,16.2,0,0,0-1.015-1.448l1.492-.777a17.634,17.634,0,0,1,2.6,4.123l-1.616.892a8.993,8.993,0,0,0-.574-1.271c-1.766.512-3.523.98-4.715,1.3a.379.379,0,0,1-.256.3l-.742-2.154c.318-.044.662-.124,1.059-.194v-11h5.968v7.858h-4.158v2.781Zm2.393-8.873h-2.393v1.3H109.7Zm-2.393,4.335H109.7V32.244h-2.393Zm11.5-6.127v9.676c0,1.836-.733,2.251-3.108,2.251a6.861,6.861,0,0,0-.653-2.066c.38.035.759.035,1.059.035.653,0,.715,0,.715-.274V29.357h-2.269V41.638h-1.951V27.45h6.207Z" transform="translate(-56.748 -26.673)" fill="#cfe7f8"/>
      <path id="Path_1683" data-name="Path 1683" d="M137.1,29.816h-6.03c-.035.124-.159.2-.433.256v2.234l.283-.335a34.515,34.515,0,0,1,5.509,3.267l-1.413,1.748a30.873,30.873,0,0,0-4.379-2.949v7.619h-2.048V29.816H122.8V27.9h14.3v1.916Z" transform="translate(-58.898 -26.726)" fill="#cfe7f8"/>
      <path id="Path_1684" data-name="Path 1684" d="M151.079,31.532c.1,1.474.256,2.869.459,4.079a16.849,16.849,0,0,0,1.457-3.4l2.031.574a.44.44,0,0,1-.433.221,18.224,18.224,0,0,1-2.49,5.032c.336,1.033.759,1.651,1.218,1.651.362,0,.556-.812.618-2.649a4.76,4.76,0,0,0,1.474,1.059c-.274,2.763-.856,3.443-2.251,3.443-1.033,0-1.81-.715-2.393-1.925a13.8,13.8,0,0,1-2.331,1.951,6.452,6.452,0,0,0-1.236-1.43h-1.536v1.413H144V40.14h-3.108V38.745H144v-.618h-2.49V34.171H144v-.618h-2.887V32.22H144v-.7H140.67V29.951h3.3v-.856h-2.587V27.647h2.587V26.57l2.242.124c-.018.141-.124.238-.415.283v.662h2.543v1.448H145.8v.856h3.364c-.044-1.112-.062-2.234-.062-3.364,2.251.115,2.3.115,2.366.115-.018.177-.141.274-.459.335-.018.971-.018,1.951.018,2.922h4.158v1.571h-4.1Zm-8.219,3.584v.592h1.271v-.592Zm0,1.492V37.2h1.271v-.592Zm2.684-.9h1.333v-.592h-1.333Zm0,1.492h1.333v-.592h-1.333Zm3.081,1.554v.362a11.392,11.392,0,0,0,1.474-1.448,32.094,32.094,0,0,1-.856-6.145h-3.381v.018h.274c-.018.141-.141.238-.415.283v.4h2.922v1.333H145.72v.618h2.569v3.955h-2.622v.618h2.949Zm4.317-12.1a12.609,12.609,0,0,1,2.013,2.19l-1.474,1.033a13.515,13.515,0,0,0-1.934-2.3Z" transform="translate(-60.991 -26.57)" fill="#cfe7f8"/>
    </g>
  </g>
</svg>
